<svg width="63" height="79" viewBox="0 0 63 79" fill="none" xmlns="http://www.w3.org/2000/svg">
<path d="M38.3686 18.463C37.7179 18.9728 37.0982 20.4544 33.78 22.3895C33.2871 22.6769 32.3491 23.1923 31.8083 23.3641C30.6281 23.7416 26.6198 20.7051 25.3269 19.2911C25.2706 19.2291 25.2114 19.1615 25.1607 19.1052L25.003 18.9362C24.9945 18.9277 24.9692 18.8996 24.9495 18.8855C24.7776 18.5503 24.5495 18.2855 24.3241 17.9221C23.6397 16.8264 23.2059 15.9307 22.9327 14.5336C22.2876 11.2351 24.0058 7.55079 26.4733 5.7903C28.6282 4.25516 31.1182 3.73406 33.7434 4.43544C34.5349 4.64669 35.3011 5.02696 35.9349 5.41004C38.5798 7.00997 40.5825 10.7788 40.1431 13.7928C39.6586 17.0827 38.608 17.5841 38.3686 18.463ZM22.6369 20.815C23.5777 21.9867 26.2733 24.55 27.4958 24.8937C27.2508 25.2429 26.6508 25.3922 26.1917 25.5866C20.2736 28.0682 17.2625 29.5019 11.8092 33.2905C9.80367 34.6848 8.16149 36.3607 6.47143 38.1128C6.07708 38.5212 5.90807 38.7803 5.54753 39.2057C3.74479 41.3211 2.11388 44.6026 1.46884 47.3997C0.530855 51.4671 1.00971 55.7908 2.82089 59.5456C3.01525 59.9484 3.30538 60.6695 3.56734 60.9568C4.77573 63.751 8.21501 67.841 10.5107 69.7733C13.3134 72.1338 15.3978 73.8266 18.9385 75.4773C24.6565 78.1419 31.0083 79.2123 37.532 77.7504C41.9092 76.7702 46.633 74.4942 50.1539 71.7112L54.1312 68.2466C54.5397 67.8748 54.6636 67.6213 55.0016 67.2185C56.7339 65.1651 57.548 64.3933 59.0296 61.7511C62.2097 56.0866 63.1787 50.2756 60.2352 43.6477L58.8719 41.2028C58.4831 40.6 57.7395 39.462 57.2269 39.0226C56.6072 37.9691 54.9678 36.4847 53.9622 35.5692C53.5651 35.2087 53.1961 34.8566 52.7651 34.5214L48.2273 31.2821C45.3513 29.3949 40.129 26.8964 37.0475 25.6711C36.5208 25.4598 35.749 25.2824 35.4786 24.8937C36.7151 24.55 39.2756 22.0741 40.2474 20.9305C41.2614 19.7418 42.8388 16.8433 42.9965 14.849C43.8331 11.1084 41.836 6.37619 39.146 3.9932C29.6422 -4.41487 15.4288 6.32831 21.1722 18.4404C21.8482 19.8657 22.3806 20.3305 22.6369 20.8178V20.815ZM49.8216 54.2191C49.8216 58.0865 47.3851 62.5088 45.1795 65.4186L43.0867 67.948L39.5544 71.1507C38.0953 72.407 35.7574 73.9534 34.011 74.6689C30.3999 76.1505 27.0226 73.8717 24.4058 71.8155C21.8369 69.7987 19.5891 67.6917 17.5949 65.0214C15.9752 62.8525 15.5048 61.7906 14.5077 59.5371C14.4936 59.5033 14.4485 59.4104 14.4344 59.3822C14.3359 59.1963 14.3781 59.2639 14.3077 59.1822C13.9978 57.5767 13.6824 57.602 13.3134 54.8585C13.0965 53.2388 13.2261 51.6277 13.6824 50.2587C13.9471 49.4728 14.1302 49.1066 14.502 48.4531C17.854 42.5774 25.7466 42.3661 29.4957 47.6081L30.9267 50.1094C31.1745 50.5995 31.1266 50.6192 31.5435 50.915C32.1069 50.5207 32.8111 48.87 33.2111 48.1799C35.4532 44.335 40.8727 42.321 45.4612 45.1857C46.033 45.5434 46.2471 45.7293 46.7344 46.1547C48.3484 47.5743 49.6582 49.8108 49.8159 52.129C49.9032 53.4586 49.8216 53.2783 49.8216 54.2191ZM11.2994 59.785C11.4515 61.4385 13.964 65.351 15.0851 66.9227C16.6372 69.1029 20.1807 72.4746 20.3243 72.6971C19.0455 72.3845 15.1471 69.7423 13.8824 68.6635C12.412 67.4128 11.0712 66.2354 9.87972 64.7425C8.83752 63.4412 8.18403 62.8187 7.1559 61.1765C6.68832 60.4301 6.29116 59.6752 5.86301 58.9203C4.47715 55.8922 3.40115 52.9121 4.249 48.6193C4.71376 46.2673 5.80949 43.9998 7.11647 42.1802C8.93892 39.6423 9.14455 39.6057 11.6205 37.3297L17.0766 33.4792L25.2565 29.3301C26.9804 28.5217 28.907 27.8541 30.6647 27.1217C31.1464 26.9217 31.3999 26.795 31.8731 26.9527L36.2334 28.6963C42.1571 31.1751 46.9231 33.6031 51.9172 37.8226C52.2214 38.079 52.3961 38.2733 52.7285 38.5494C53.027 38.8001 53.2158 39.0339 53.4918 39.324L54.996 40.9887C55.1481 41.1746 55.1678 41.2338 55.3086 41.4225C58.3761 45.5603 60.0718 50.408 58.3677 55.7401C57.5423 58.3147 56.5959 60.0526 55.0946 62.2384C54.1707 63.582 52.6045 65.4665 51.413 66.6185C49.4948 68.4748 44.8612 72.0943 42.881 72.576C43.1965 72.0831 43.3796 72.0831 43.7768 71.7C47.171 68.4156 50.0469 64.6158 51.7201 60.0414C52.2637 58.5569 52.9425 56.0556 52.9425 54.098C52.9425 52.0333 52.8834 51.2389 52.4581 49.6024C50.8271 43.3379 43.7993 39.0198 37.4249 41.0929C33.4843 42.3746 32.659 44.197 31.5407 44.9829C30.921 44.5491 30.2591 43.5182 28.4676 42.3886C27.2592 41.6253 25.8931 41.0648 24.3354 40.7803C20.6426 40.1042 17.4653 41.3323 15.3668 42.8252C14.4063 43.5097 13.243 44.7237 12.5528 45.6899C10.7022 48.2841 9.72198 51.6333 10.1868 54.9796C10.3867 56.4133 10.7529 58.7963 11.2994 59.785ZM20.3215 72.6971C20.7215 72.6971 20.4623 72.652 20.5525 72.8577L20.3215 72.6971ZM42.7627 72.7196C42.7627 72.5366 42.7148 72.576 42.8782 72.576L42.7627 72.7196Z" stroke="#441890" stroke-width="0.287925" stroke-miterlimit="2.61313"/>
<path fill-rule="evenodd" clip-rule="evenodd" d="M38.3686 18.463C37.7179 18.9728 37.0982 20.4544 33.78 22.3895C33.2871 22.6769 32.3491 23.1923 31.8083 23.3641C30.6281 23.7416 26.6198 20.7051 25.3269 19.2911C25.2706 19.2291 25.2114 19.1615 25.1607 19.1052L25.003 18.9362C24.9945 18.9277 24.9692 18.8996 24.9495 18.8855C24.7776 18.5503 24.5495 18.2855 24.3241 17.9221C23.6397 16.8264 23.2059 15.9307 22.9326 14.5336C22.2876 11.2351 24.0058 7.55079 26.4733 5.7903C28.6282 4.25516 31.1182 3.73406 33.7434 4.43544C34.5349 4.64669 35.3011 5.02696 35.9349 5.41004C38.5798 7.00997 40.5825 10.7788 40.1431 13.7928C39.6586 17.0827 38.608 17.5841 38.3686 18.463ZM22.6369 20.815C23.5777 21.9867 26.2733 24.55 27.4958 24.8937C27.2508 25.2429 26.6508 25.3922 26.1917 25.5866C20.2736 28.0682 17.2625 29.5019 11.8092 33.2905C9.80367 34.6848 8.16149 36.3607 6.47143 38.1128C6.07708 38.5212 5.90807 38.7803 5.54753 39.2057C3.74479 41.3211 2.11388 44.6026 1.46884 47.3997C0.530855 51.4671 1.00971 55.7908 2.82089 59.5456C3.01525 59.9484 3.30538 60.6695 3.56734 60.9568C4.77573 63.751 8.21501 67.841 10.5107 69.7733C13.3134 72.1338 15.3978 73.8266 18.9385 75.4773C24.6565 78.1419 31.0083 79.2123 37.532 77.7504C41.9092 76.7702 46.633 74.4942 50.1539 71.7112L54.1312 68.2466C54.5397 67.8748 54.6636 67.6213 55.0016 67.2185C56.7339 65.1651 57.548 64.3933 59.0296 61.7511C62.2097 56.0866 63.1787 50.2756 60.2352 43.6477L58.8718 41.2028C58.4831 40.6 57.7395 39.462 57.2269 39.0226C56.6072 37.9691 54.9678 36.4847 53.9622 35.5692C53.5651 35.2087 53.1961 34.8566 52.7651 34.5214L48.2273 31.2821C45.3513 29.3949 40.129 26.8964 37.0475 25.6711C36.5208 25.4598 35.749 25.2824 35.4786 24.8937C36.7151 24.55 39.2756 22.0741 40.2473 20.9305C41.2614 19.7418 42.8388 16.8433 42.9965 14.849C43.8331 11.1084 41.836 6.37619 39.146 3.9932C29.6422 -4.41487 15.4288 6.32831 21.1722 18.4404C21.8482 19.8657 22.3806 20.3305 22.6369 20.8178V20.815ZM49.8216 54.2191C49.8216 58.0865 47.3851 62.5088 45.1795 65.4186L43.0867 67.948L39.5544 71.1507C38.0953 72.407 35.7574 73.9534 34.011 74.6689C30.3999 76.1505 27.0226 73.8717 24.4058 71.8155C21.8369 69.7987 19.5891 67.6917 17.5949 65.0214C15.9752 62.8525 15.5048 61.7906 14.5077 59.5371C14.4936 59.5033 14.4485 59.4104 14.4344 59.3822C14.3359 59.1963 14.3781 59.2639 14.3077 59.1822C13.9978 57.5767 13.6824 57.602 13.3134 54.8585C13.0965 53.2388 13.2261 51.6277 13.6824 50.2587C13.9471 49.4728 14.1302 49.1066 14.502 48.4531C17.854 42.5774 25.7466 42.3661 29.4957 47.6081L30.9267 50.1094C31.1745 50.5995 31.1266 50.6192 31.5435 50.915C32.1069 50.5207 32.8111 48.87 33.2111 48.1799C35.4532 44.335 40.8727 42.321 45.4612 45.1857C46.033 45.5434 46.2471 45.7293 46.7344 46.1547C48.3484 47.5743 49.6582 49.8108 49.8159 52.129C49.9032 53.4586 49.8216 53.2783 49.8216 54.2191ZM11.2994 59.785C11.4515 61.4385 13.964 65.351 15.0851 66.9227C16.6372 69.1029 20.1807 72.4746 20.3243 72.6971C19.0455 72.3845 15.1471 69.7423 13.8824 68.6635C12.412 67.4128 11.0712 66.2354 9.87972 64.7425C8.83752 63.4412 8.18403 62.8187 7.1559 61.1765C6.68832 60.4301 6.29116 59.6752 5.86301 58.9203C4.47715 55.8922 3.40115 52.9121 4.249 48.6193C4.71376 46.2673 5.80949 43.9998 7.11647 42.1802C8.93892 39.6423 9.14455 39.6057 11.6205 37.3297L17.0766 33.4792L25.2565 29.3301C26.9804 28.5217 28.907 27.8541 30.6647 27.1217C31.1464 26.9217 31.3999 26.795 31.8731 26.9527L36.2334 28.6963C42.1571 31.1751 46.9231 33.6031 51.9172 37.8226C52.2215 38.079 52.3961 38.2733 52.7285 38.5494C53.027 38.8001 53.2158 39.0339 53.4918 39.324L54.996 40.9887C55.1481 41.1746 55.1678 41.2338 55.3086 41.4225C58.3761 45.5603 60.0718 50.408 58.3676 55.7401C57.5423 58.3147 56.5959 60.0526 55.0946 62.2384C54.1707 63.582 52.6045 65.4665 51.413 66.6185C49.4948 68.4748 44.8612 72.0943 42.881 72.576C43.1965 72.0831 43.3796 72.0831 43.7768 71.7C47.171 68.4156 50.0469 64.6158 51.7201 60.0414C52.2637 58.5569 52.9425 56.0556 52.9425 54.098C52.9425 52.0333 52.8834 51.2389 52.4581 49.6024C50.8271 43.3379 43.7993 39.0198 37.4249 41.0929C33.4843 42.3745 32.659 44.197 31.5407 44.9829C30.921 44.5491 30.2591 43.5182 28.4676 42.3886C27.2592 41.6253 25.8931 41.0648 24.3354 40.7803C20.6426 40.1042 17.4653 41.3323 15.3668 42.8252C14.4063 43.5097 13.243 44.7237 12.5528 45.6899C10.7022 48.2841 9.72198 51.6333 10.1868 54.9796C10.3867 56.4133 10.7529 58.7963 11.2994 59.785ZM20.3215 72.6971C20.7215 72.6971 20.4623 72.652 20.5525 72.8577L20.3215 72.6971ZM42.7627 72.7197C42.7627 72.5366 42.7148 72.576 42.8782 72.576L42.7627 72.7197Z" fill="#441890"/>
</svg>
