<svg width="20" height="17" viewBox="0 0 20 17" fill="none" xmlns="http://www.w3.org/2000/svg">
<path d="M2.73086 4.96896C3.08997 4.96896 3.32937 4.7664 3.32937 4.35205V1.378C3.32937 0.991276 3.05316 0.742676 2.65724 0.742676C2.32574 0.742676 2.12319 0.853148 1.89297 1.0097L1.24845 1.46086C1.05509 1.58979 0.953808 1.70946 0.953808 1.90282C0.953808 2.14223 1.14717 2.30798 1.35896 2.30798C1.46943 2.30798 1.5339 2.28955 1.69041 2.17908L2.11395 1.89363H2.12319V4.35205C2.12319 4.7664 2.37179 4.96896 2.73086 4.96896ZM5.92592 3.85485H18.5311C18.9547 3.85485 19.2769 3.53259 19.2769 3.11824C19.2769 2.69467 18.9547 2.37244 18.5311 2.37244H5.92592C5.51158 2.37244 5.18932 2.69467 5.18932 3.11824C5.18932 3.53259 5.51158 3.85485 5.92592 3.85485ZM1.24845 10.5211H3.61479C3.87262 10.5211 4.05679 10.3462 4.05679 10.0884C4.05679 9.81214 3.87262 9.6372 3.61479 9.6372H2.29813V9.60958L3.05316 9.00187C3.68845 8.48625 3.92785 8.1916 3.92785 7.64836C3.92785 6.91175 3.31095 6.41455 2.31651 6.41455C1.44181 6.41455 0.797294 6.87494 0.797294 7.46423C0.797294 7.75887 0.990658 7.91539 1.30369 7.91539C1.51548 7.91539 1.6628 7.85096 1.7825 7.63917C1.9114 7.41818 2.08634 7.29848 2.33494 7.29848C2.61115 7.29848 2.79533 7.47342 2.79533 7.73125C2.79533 7.95224 2.68485 8.1456 2.21523 8.5231L0.99985 9.5175C0.824911 9.66482 0.751251 9.83056 0.751251 10.0332C0.751251 10.3186 0.944615 10.5211 1.24845 10.5211ZM5.92592 9.42545H18.5311C18.9547 9.42545 19.2769 9.09396 19.2769 8.67961C19.2769 8.2653 18.9547 7.943 18.5311 7.943H5.92592C5.51158 7.943 5.18932 8.2653 5.18932 8.67961C5.18932 9.09396 5.51158 9.42545 5.92592 9.42545ZM2.34417 16.2575C3.43065 16.2575 4.08437 15.7695 4.08437 14.996C4.08437 14.4896 3.7253 14.1397 3.08997 14.0845V14.0568C3.55955 13.974 3.91866 13.6609 3.91866 13.1269C3.91866 12.4271 3.23729 12.0404 2.33494 12.0404C1.60756 12.0404 0.824911 12.3811 0.824911 12.9888C0.824911 13.2466 1.00904 13.4307 1.29449 13.4307C1.49705 13.4307 1.58914 13.3479 1.71803 13.2098C1.92982 12.9796 2.10476 12.9059 2.32574 12.9059C2.61115 12.9059 2.82294 13.044 2.82294 13.3202C2.82294 13.5781 2.61115 13.707 2.23366 13.707H2.12319C1.86535 13.707 1.69965 13.8359 1.69965 14.1029C1.69965 14.3515 1.85616 14.4988 2.12319 14.4988H2.24289C2.65724 14.4988 2.87822 14.6369 2.87822 14.9224C2.87822 15.171 2.648 15.3551 2.34417 15.3551C2.01268 15.3551 1.7825 15.171 1.60756 14.996C1.49705 14.8947 1.405 14.8211 1.23926 14.8211C0.935383 14.8211 0.723633 14.996 0.723633 15.2815C0.723633 15.9168 1.58914 16.2575 2.34417 16.2575ZM5.92592 14.9868H18.5311C18.9547 14.9868 19.2769 14.6646 19.2769 14.2502C19.2769 13.8267 18.9547 13.5044 18.5311 13.5044H5.92592C5.51158 13.5044 5.18932 13.8267 5.18932 14.2502C5.18932 14.6646 5.51158 14.9868 5.92592 14.9868Z" fill="#252525"/>
</svg>
