<svg width="18" height="15" viewBox="0 0 18 15" fill="none" xmlns="http://www.w3.org/2000/svg">
<path d="M2.13088 0.681396C1.37325 0.681396 0.761719 1.29258 0.761719 2.05055C0.761719 2.80784 1.37325 3.41937 2.13088 3.41937C2.8885 3.41937 3.49969 2.80784 3.49969 2.05055C3.49969 1.29258 2.8885 0.681396 2.13088 0.681396Z" fill="#252525"/>
<path d="M2.13088 6.15723C1.37325 6.15723 0.761719 6.76876 0.761719 7.52638C0.761719 8.28366 1.37325 8.8952 2.13088 8.8952C2.8885 8.8952 3.49969 8.28366 3.49969 7.52638C3.49969 6.76876 2.8885 6.15723 2.13088 6.15723Z" fill="#252525"/>
<path d="M2.13088 11.6333C1.36878 11.6333 0.761719 12.2493 0.761719 13.0025C0.761719 13.7553 1.37772 14.3713 2.13088 14.3713C2.88369 14.3713 3.49969 13.7553 3.49969 13.0025C3.49969 12.2493 2.89297 11.6333 2.13088 11.6333Z" fill="#252525"/>
<path d="M17.2727 12.2603H6.24414V13.6432H17.2727V12.2603Z" fill="#252525"/>
<path d="M17.2727 1.31152H6.24414V2.68102H17.2727V1.31152Z" fill="#252525"/>
<path d="M17.2727 6.7832H6.24414V8.1582H17.2727V6.7832Z" fill="#252525"/>
</svg>
