<svg width="24" height="25" viewBox="0 0 24 25" fill="none" xmlns="http://www.w3.org/2000/svg">
<g clip-path="url(#clip0_299_7399)">
<path d="M13.9995 6.55317C13.9909 6.35805 13.9068 6.1739 13.765 6.03958C13.6233 5.90526 13.4348 5.83125 13.2395 5.83317H3.07954C2.97781 5.82343 2.87518 5.83507 2.77821 5.86733C2.68124 5.89959 2.59209 5.95176 2.51647 6.02049C2.44084 6.08922 2.38042 6.173 2.33907 6.26646C2.29773 6.35991 2.27637 6.46098 2.27637 6.56317C2.27637 6.66536 2.29773 6.76642 2.33907 6.85988C2.38042 6.95333 2.44084 7.03711 2.51647 7.10584C2.59209 7.17458 2.68124 7.22675 2.77821 7.259C2.87518 7.29126 2.97781 7.3029 3.07954 7.29317H7.33288V18.4998C7.35016 18.6797 7.43384 18.8467 7.56758 18.9682C7.70131 19.0897 7.87552 19.157 8.05621 19.157C8.2369 19.157 8.4111 19.0897 8.54484 18.9682C8.67858 18.8467 8.76226 18.6797 8.77954 18.4998V7.29317H13.2395C13.4377 7.29324 13.628 7.21592 13.77 7.07769C13.912 6.93946 13.9943 6.75125 13.9995 6.55317Z" fill="#252525"/>
<path d="M20.4477 10.4999H14.101C13.9993 10.4902 13.8967 10.5018 13.7997 10.5341C13.7027 10.5663 13.6136 10.6185 13.5379 10.6872C13.4623 10.756 13.4019 10.8398 13.3606 10.9332C13.3192 11.0267 13.2979 11.1277 13.2979 11.2299C13.2979 11.3321 13.3192 11.4332 13.3606 11.5266C13.4019 11.6201 13.4623 11.7039 13.5379 11.7726C13.6136 11.8413 13.7027 11.8935 13.7997 11.9258C13.8967 11.958 13.9993 11.9696 14.101 11.9599H16.6677V18.1666C16.685 18.3464 16.7687 18.5134 16.9024 18.6349C17.0361 18.7564 17.2103 18.8237 17.391 18.8237C17.5717 18.8237 17.7459 18.7564 17.8797 18.6349C18.0134 18.5134 18.0971 18.3464 18.1144 18.1666V11.9866H20.4744C20.5761 11.9963 20.6787 11.9847 20.7757 11.9524C20.8727 11.9202 20.9618 11.868 21.0374 11.7993C21.1131 11.7305 21.1735 11.6467 21.2148 11.5533C21.2562 11.4598 21.2775 11.3588 21.2775 11.2566C21.2775 11.1544 21.2562 11.0533 21.2148 10.9599C21.1735 10.8664 21.1131 10.7826 21.0374 10.7139C20.9618 10.6452 20.8727 10.593 20.7757 10.5607C20.6787 10.5285 20.5761 10.5168 20.4744 10.5266L20.4477 10.4999Z" fill="#252525"/>
</g>
<defs>
<clipPath id="clip0_299_7399">
<rect width="24" height="24" fill="white" transform="translate(0 0.5)"/>
</clipPath>
</defs>
</svg>
