<svg width="17" height="17" viewBox="0 0 17 17" fill="none" xmlns="http://www.w3.org/2000/svg">
<path d="M7.1828 4.18276C6.8899 4.47566 6.8899 4.95053 7.1828 5.24342C7.4756 5.53632 7.9505 5.53632 8.2434 5.24342L7.1828 4.18276ZM11.7268 8.7268C11.4339 9.0197 11.4339 9.4945 11.7268 9.7874C12.0196 10.0803 12.4945 10.0803 12.7874 9.7874L11.7268 8.7268ZM9.75831 12.8185C10.0513 12.5257 10.0514 12.0508 9.75851 11.7579C9.4657 11.4649 8.9908 11.4648 8.6979 11.7576L9.75831 12.8185ZM6.9561 14.5591L7.4797 15.0961L7.4863 15.0895L6.9561 14.5591ZM2.41208 10.0161L1.88171 9.4857L1.87499 9.4926L2.41208 10.0161ZM5.21441 8.2744C5.50731 7.9815 5.50731 7.5067 5.21441 7.2138C4.92152 6.9209 4.44665 6.9209 4.15375 7.2138L5.21441 8.2744ZM11.2744 6.7574C11.5673 6.46453 11.5673 5.98966 11.2744 5.69676C10.9815 5.40387 10.5066 5.40387 10.2138 5.69676L11.2744 6.7574ZM5.66975 10.2408C5.37686 10.5337 5.37686 11.0085 5.66975 11.3014C5.96265 11.5943 6.4375 11.5943 6.7304 11.3014L5.66975 10.2408ZM8.2434 5.24342L10.5154 2.97142L9.4548 1.91076L7.1828 4.18276L8.2434 5.24342ZM10.5154 2.97142C11.4773 2.00953 13.0369 2.00953 13.9988 2.97142L15.0594 1.91076C13.5117 0.36308 11.0024 0.36308 9.4548 1.91076L10.5154 2.97142ZM13.9988 2.97142C14.9607 3.93332 14.9607 5.49287 13.9988 6.45476L15.0594 7.5154C16.6071 5.96774 16.6071 3.45845 15.0594 1.91076L13.9988 2.97142ZM13.9988 6.45476L11.7268 8.7268L12.7874 9.7874L15.0594 7.5154L13.9988 6.45476ZM8.6979 11.7576L6.4259 14.0286L7.4863 15.0895L9.75831 12.8185L8.6979 11.7576ZM6.4325 14.0221C5.46732 14.9632 3.92491 14.9536 2.97159 14.0005L1.91104 15.0612C3.44495 16.5948 5.92671 16.6103 7.4797 15.0961L6.4325 14.0221ZM2.97159 14.0005C2.01827 13.0474 2.00828 11.5049 2.94918 10.5396L1.87499 9.4926C0.361071 11.0459 0.377141 13.5277 1.91104 15.0612L2.97159 14.0005ZM2.94241 10.5464L5.21441 8.2744L4.15375 7.2138L1.88171 9.4857L2.94241 10.5464ZM10.2138 5.69676L5.66975 10.2408L6.7304 11.3014L11.2744 6.7574L10.2138 5.69676Z" fill="#252525"/>
</svg>
