<svg width="19" height="19" viewBox="0 0 19 19" fill="none" xmlns="http://www.w3.org/2000/svg">
<path d="M1.19407 16.0925C1.35753 17.08 2.21549 17.8332 3.24935 17.8332H15.7493C16.9 17.8332 17.8327 16.9005 17.8327 15.7498V11.7812M1.19407 16.0925C1.17562 15.9811 1.16602 15.8666 1.16602 15.7498V3.24984C1.16602 2.09924 2.09876 1.1665 3.24935 1.1665H15.7493C16.9 1.1665 17.8327 2.09924 17.8327 3.24984V11.7812M1.19407 16.0925L5.17395 12.1126C5.88232 11.4929 6.9183 11.425 7.70143 11.9471L8.23185 12.3007C8.98664 12.8039 9.98049 12.7608 10.6889 12.1941L13.4474 9.98723C14.1505 9.42473 15.1299 9.38067 15.8773 9.86275C15.9601 9.91619 16.0338 9.98234 16.1035 10.0521L17.8327 11.7812M8.45768 6.37484C8.45768 7.52546 7.52497 8.45817 6.37435 8.45817C5.22376 8.45817 4.29102 7.52546 4.29102 6.37484C4.29102 5.22424 5.22376 4.2915 6.37435 4.2915C7.52497 4.2915 8.45768 5.22424 8.45768 6.37484Z" stroke="#252525" stroke-width="1.5" stroke-linecap="round" stroke-linejoin="round"/>
</svg>
