<svg width="22" height="22" viewBox="0 0 22 22" fill="none" xmlns="http://www.w3.org/2000/svg">
<g clip-path="url(#clip0_104_582)">
<path d="M8.17505 0.500122L6.86255 0.828247V1.81262H8.17505V0.500122ZM8.17505 1.81262V3.12512H6.86255V1.81262H6.85467C5.20355 1.83231 3.99474 1.77325 3.00642 2.31793C2.51292 2.58962 2.12049 3.05293 1.90392 3.62781C1.68867 4.20268 1.61255 4.88781 1.61255 5.75012V16.2501C1.61255 17.1137 1.68867 17.7976 1.90524 18.3724C2.12049 18.9486 2.51292 19.408 3.00774 19.6797C3.99474 20.2257 5.20355 20.1679 6.85467 20.1876H13.425V18.8751H6.86255C5.2088 18.8554 4.12336 18.7964 3.64299 18.5312C3.40149 18.4 3.26236 18.253 3.13505 17.9117C3.00774 17.5705 2.92505 17.0271 2.92505 16.2501V9.68762C2.92505 8.91062 3.00774 8.36725 3.13505 8.026C3.26367 7.68475 3.40149 7.53906 3.64299 7.4065C4.12467 7.14006 5.21142 7.08231 6.87042 7.06262H14.7375C16.3913 7.08231 17.4767 7.14137 17.9571 7.4065C18.1986 7.53775 18.3377 7.68475 18.465 8.026C18.5924 8.36725 18.675 9.68762 18.675 9.68762V13.6251H19.9875V5.75012C19.9875 4.8865 19.9088 4.20268 19.6922 3.62781C19.4938 3.07423 19.1042 2.6097 18.5937 2.31793C17.6054 1.77193 16.3965 1.83231 14.7454 1.81262H14.7375V3.12512H13.425V1.81262H8.17505ZM13.425 1.81262H14.7375V0.500122L13.425 0.828247V1.81262ZM17.3625 14.9376V17.5626H14.7375V18.8751H17.3625V21.5001H18.675V18.8751H21.3V17.5626H18.675V14.9376H17.3625Z" fill="#1EA7FF"/>
</g>
<defs>
<clipPath id="clip0_104_582">
<rect width="21" height="21" fill="white" transform="translate(0.300049 0.500122)"/>
</clipPath>
</defs>
</svg>
