<svg width="24" height="24" viewBox="0 0 24 24" fill="none" xmlns="http://www.w3.org/2000/svg">
<path d="M11.7358 11.97L10.3794 13.3264C9.6291 14.0767 9.6291 15.2983 10.3794 16.0486C11.1297 16.7989 12.3514 16.7989 13.1017 16.0486L15.2372 13.9131C16.7378 12.4125 16.7378 9.97886 15.2372 8.46863C13.7366 6.96802 11.3029 6.96802 9.79264 8.46863L7.46479 10.7965C6.1758 12.0855 6.1758 14.1729 7.46479 15.4618" stroke="#9C9CA4" stroke-width="1.44289" stroke-linecap="round" stroke-linejoin="round"/>
<path d="M11.5431 21.7817C16.8557 21.7817 21.1624 17.475 21.1624 12.1624C21.1624 6.84985 16.8557 2.54315 11.5431 2.54315C6.23053 2.54315 1.92383 6.84985 1.92383 12.1624C1.92383 17.475 6.23053 21.7817 11.5431 21.7817Z" stroke="#9C9CA4" stroke-width="1.44289" stroke-linecap="round" stroke-linejoin="round"/>
</svg>
