<svg width="42" height="42" viewBox="0 0 42 42" fill="none" xmlns="http://www.w3.org/2000/svg">
<g clip-path="url(#clip0_453_2061)">
<path d="M21 41.5C32.3218 41.5 41.5 32.3218 41.5 21C41.5 9.67816 32.3218 0.5 21 0.5C9.67816 0.5 0.5 9.67816 0.5 21C0.5 32.3218 9.67816 41.5 21 41.5Z" fill="#E9573E"/>
<path fill-rule="evenodd" clip-rule="evenodd" d="M15.9282 26.1616L26.4814 26.2604V28.66L31.1268 30.8752L20.7195 40.6403L11.7891 30.4633L15.9282 28.7012V26.1616Z" fill="#F9DCA4"/>
<path fill-rule="evenodd" clip-rule="evenodd" d="M35.9791 34.9939C34.0635 37.0496 31.7447 38.6883 29.1675 39.8078C26.5903 40.9272 23.8099 41.5033 21.0001 41.5001C20.1491 41.5001 19.299 41.4476 18.4545 41.3429C15.8646 40.9718 13.3587 40.1538 11.0486 38.9254C9.09899 37.8402 7.33872 36.4454 5.83667 34.7955L6.68785 32.7389L14.2032 29.3859C14.7837 32.3952 17.0129 37.0386 20.9543 39.6704C22.7978 38.557 24.3976 37.0831 25.6581 35.337C26.9185 33.5908 27.8137 31.6082 28.2899 29.5079L34.966 32.7607L35.9791 34.9939Z" fill="#677079"/>
<path opacity="0.11" fill-rule="evenodd" clip-rule="evenodd" d="M26.8987 28.8584C27.3817 29.0886 28.2077 29.4741 28.2879 29.5212C26.9412 33.7459 17.8588 35.2931 15.1812 29.0196L26.8987 28.8584Z" fill="black"/>
<path fill-rule="evenodd" clip-rule="evenodd" d="M21.1521 6.09406C35.2706 6.09406 29.7681 29.4907 21.1521 29.4907C13.0144 29.4907 7.03359 6.09406 21.1521 6.09406Z" fill="#FFE8BE"/>
<path fill-rule="evenodd" clip-rule="evenodd" d="M12.6839 16.4522C10.6472 17.3412 12.3788 21.552 13.6605 21.5328C13.1289 19.8855 12.801 18.1793 12.6839 16.4522Z" fill="#F9DCA4"/>
<path fill-rule="evenodd" clip-rule="evenodd" d="M29.784 16.4522C31.8208 17.3406 30.0892 21.552 28.8081 21.5328C29.3394 19.8854 29.6671 18.1792 29.784 16.4522Z" fill="#F9DCA4"/>
<path fill-rule="evenodd" clip-rule="evenodd" d="M16.0216 10.7414C15.6289 12.5778 15.7669 14.4036 14.026 14.7406C13.612 14.8202 13.338 15.3808 13.2485 15.8751C13.0466 16.9532 12.9621 18.0501 12.9964 19.1464C13.0654 19.5239 12.7337 18.422 12.7337 18.422L12.6773 16.3162C12.6773 16.3162 12.6527 15.9129 12.662 15.2979C12.6819 14.0506 12.8239 12.0285 13.4555 11.4102C14.3982 10.488 16.0216 10.7414 16.0216 10.7414Z" fill="#AD835F"/>
<path fill-rule="evenodd" clip-rule="evenodd" d="M26.437 10.7414C26.8298 12.5778 26.6924 14.4036 28.4326 14.7406C28.8466 14.8202 29.1213 15.3808 29.2102 15.8751C29.4037 16.9576 29.4731 18.0587 29.4172 19.1571C29.3475 19.5352 29.6792 18.4326 29.6792 18.4326L29.7893 16.3242C29.7893 16.3242 29.8059 15.9129 29.796 15.2979C29.7774 14.0506 29.6354 12.0285 29.0032 11.4102C28.0604 10.488 26.437 10.7414 26.437 10.7414Z" fill="#AD835F"/>
<path fill-rule="evenodd" clip-rule="evenodd" d="M17.3274 31.3344C16.3256 30.3677 15.5241 29.6181 14.797 28.8677C13.8649 27.9051 13.5491 26.9292 13.368 25.2202C12.9569 22.267 12.7258 19.2915 12.676 16.3103C12.676 16.3103 13.362 20.5118 14.6411 22.583C15.2979 23.6465 17.9848 21.1467 19.0563 20.7665C19.4206 20.598 19.8311 20.5575 20.2213 20.6517C20.6116 20.7459 20.9585 20.9692 21.2058 21.2854C21.4486 20.9686 21.7924 20.7445 22.1801 20.6501C22.5679 20.5558 22.9762 20.5968 23.3374 20.7665C24.4095 21.1467 27.0592 23.2823 27.7532 22.583C29.4217 20.9006 29.7813 16.3162 29.7813 16.3162C29.7116 19.3308 29.4615 22.3384 29.0323 25.323C28.7915 27.1448 28.6694 27.8507 28.0464 28.5632C27.1321 29.5902 26.1163 30.5222 25.0145 31.345C24.4652 31.7802 23.5105 32.1889 21.0784 32.1743C18.8187 32.161 17.8919 31.879 17.3274 31.3344Z" fill="#60350A"/>
<path fill-rule="evenodd" clip-rule="evenodd" d="M26.7746 11.1129C27.1265 11.0448 27.4907 11.0864 27.8182 11.2319C28.1457 11.3775 28.4205 11.6201 28.6057 11.9269C29.638 13.6605 29.7236 13.8841 29.7236 13.8841C29.7236 13.8841 29.6015 10.7832 29.5279 10.4143C29.6166 10.3326 29.7338 10.2888 29.8544 10.2923C29.975 10.2957 30.0895 10.3462 30.1734 10.4329C30.2464 10.5802 29.8788 7.31477 27.9608 6.68849C27.2596 4.69686 24.8069 3.22139 24.8069 3.22139L24.6961 4.32799C24.4491 3.57674 23.9859 2.91508 23.3646 2.42591C22.7432 1.93673 21.9913 1.6418 21.2031 1.57806C21.6456 2.0763 21.5395 2.44053 21.5395 2.44053C20.8492 2.15134 20.1064 2.00856 19.3581 2.02124C19.451 2.61103 18.7683 3.23864 18.7683 3.23864C18.7683 3.23864 18.3444 2.59245 16.6659 2.37153C16.3707 3.44098 15.8167 3.62542 15.2826 4.12365C14.8339 4.58317 14.4212 5.07644 14.048 5.59913C14.048 5.59913 14.1031 4.56616 14.4719 4.27094C14.6106 4.17938 11.3432 5.46711 12.9779 10.2657C12.685 10.2586 12.3983 10.3505 12.1642 10.5265C11.93 10.7025 11.7621 10.9524 11.6875 11.2357C12.6097 11.4937 12.2282 12.8876 12.7443 13.7912C13.1072 12.743 13.3474 10.7009 15.6157 11.2357C17.2398 11.6185 18.7988 12.4391 20.671 12.5048C23.3161 12.597 24.3206 11.2085 26.7746 11.1129Z" fill="#60350A"/>
<path fill-rule="evenodd" clip-rule="evenodd" d="M22.0052 26.1045C22.2637 26.1479 22.5284 26.1355 22.7818 26.0682C23.0351 26.0009 23.2711 25.8803 23.474 25.7144C23.9517 25.1638 24.3411 24.3816 23.6167 23.961C22.9095 23.4588 22.0969 23.1247 21.2409 22.9844C20.3798 23.1224 19.5618 23.456 18.8499 23.9597C17.9609 24.4738 18.5049 25.1638 18.9833 25.7144C19.1862 25.8803 19.4222 26.0009 19.6755 26.0682C19.9288 26.1355 20.1936 26.1479 20.4521 26.1045C19.914 24.231 22.5439 24.231 22.0052 26.1045Z" fill="#FFE8BE"/>
</g>
<defs>
<clipPath id="clip0_453_2061">
<rect width="41" height="41" fill="white" transform="translate(0.5 0.5)"/>
</clipPath>
</defs>
</svg>
