<svg width="43" height="41" viewBox="0 0 43 41" fill="none" xmlns="http://www.w3.org/2000/svg">
<rect width="43" height="41" rx="20.5" fill="#441890"/>
<g clip-path="url(#clip0_757_7044)">
<path d="M23.9417 12.9545C23.7105 13.1357 23.4903 13.6621 22.3114 14.3496C22.1363 14.4517 21.803 14.6349 21.6109 14.6959C21.1915 14.83 19.7674 13.7512 19.308 13.2488C19.288 13.2267 19.267 13.2027 19.249 13.1827L19.1929 13.1227C19.1899 13.1197 19.1809 13.1096 19.1739 13.1046C19.1129 12.9855 19.0318 12.8915 18.9517 12.7624C18.7085 12.3731 18.5544 12.0548 18.4573 11.5584C18.2282 10.3865 18.8386 9.07743 19.7153 8.45193C20.4809 7.9065 21.3657 7.72135 22.2984 7.97055C22.5796 8.04561 22.8518 8.18072 23.077 8.31682C24.0168 8.88528 24.7283 10.2243 24.5722 11.2952C24.4001 12.4641 24.0268 12.6423 23.9417 12.9545ZM18.3523 13.7902C18.6865 14.2065 19.6443 15.1172 20.0786 15.2393C19.9916 15.3634 19.7784 15.4165 19.6153 15.4855C17.5126 16.3672 16.4427 16.8767 14.5052 18.2227C13.7926 18.7181 13.2091 19.3136 12.6087 19.9361C12.4686 20.0812 12.4085 20.1733 12.2804 20.3244C11.6399 21.076 11.0604 22.2419 10.8313 23.2357C10.498 24.6809 10.6681 26.2171 11.3116 27.5512C11.3807 27.6943 11.4838 27.9505 11.5768 28.0526C12.0062 29.0454 13.2282 30.4985 14.0438 31.1851C15.0396 32.0237 15.7802 32.6252 17.0382 33.2117C19.0698 34.1584 21.3266 34.5387 23.6445 34.0193C25.1997 33.6711 26.8781 32.8624 28.129 31.8736L29.5422 30.6426C29.6873 30.5105 29.7313 30.4205 29.8514 30.2773C30.4669 29.5478 30.7561 29.2735 31.2826 28.3348C32.4125 26.3222 32.7567 24.2575 31.7109 21.9027L31.2265 21.034C31.0884 20.8198 30.8242 20.4155 30.6421 20.2593C30.4219 19.8851 29.8394 19.3576 29.4821 19.0324C29.341 18.9043 29.2099 18.7792 29.0568 18.6601L27.4445 17.5092C26.4227 16.8386 24.5672 15.9509 23.4723 15.5156C23.2852 15.4405 23.011 15.3775 22.9149 15.2393C23.3542 15.1172 24.264 14.2375 24.6092 13.8312C24.9695 13.4089 25.53 12.3791 25.586 11.6705C25.8833 10.3414 25.1737 8.6601 24.2179 7.81342C20.8412 4.82604 15.7912 8.64308 17.8318 12.9465C18.072 13.4529 18.2612 13.6181 18.3523 13.7912V13.7902ZM28.011 25.6587C28.011 27.0328 27.1453 28.604 26.3616 29.6378L25.618 30.5365L24.363 31.6745C23.8446 32.1208 23.014 32.6703 22.3935 32.9245C21.1105 33.4509 19.9105 32.6412 18.9808 31.9106C18.068 31.1941 17.2694 30.4455 16.5608 29.4967C15.9854 28.7261 15.8182 28.3488 15.4639 27.5482C15.4589 27.5362 15.4429 27.5031 15.4379 27.4931C15.4029 27.4271 15.4179 27.4511 15.3929 27.4221C15.2828 26.8516 15.1707 26.8606 15.0396 25.8858C14.9625 25.3104 15.0086 24.7379 15.1707 24.2515C15.2648 23.9723 15.3298 23.8422 15.4619 23.61C16.6529 21.5224 19.4571 21.4473 20.7892 23.3098L21.2976 24.1985C21.3857 24.3726 21.3687 24.3796 21.5168 24.4847C21.7169 24.3446 21.9671 23.7581 22.1092 23.5129C22.9059 22.1469 24.8314 21.4313 26.4617 22.4491C26.6649 22.5762 26.7409 22.6423 26.9141 22.7934C27.4875 23.2978 27.9529 24.0924 28.009 24.9161C28.04 25.3884 28.011 25.3244 28.011 25.6587ZM14.324 27.6362C14.3781 28.2237 15.2708 29.6138 15.6691 30.1723C16.2206 30.9469 17.4796 32.1448 17.5306 32.2239C17.0762 32.1128 15.6911 31.1741 15.2418 30.7908C14.7194 30.3464 14.243 29.9281 13.8196 29.3976C13.4493 28.9353 13.2172 28.7141 12.8519 28.1306C12.6857 27.8654 12.5446 27.5972 12.3925 27.329C11.9001 26.2531 11.5178 25.1943 11.819 23.6691C11.9842 22.8334 12.3735 22.0278 12.8379 21.3812C13.4854 20.4795 13.5584 20.4665 14.4381 19.6579L16.3767 18.2898L19.283 16.8156C19.8955 16.5284 20.58 16.2912 21.2045 16.031C21.3757 15.9599 21.4657 15.9149 21.6339 15.9709L23.1831 16.5904C25.2878 17.4711 26.9811 18.3338 28.7555 19.833C28.8636 19.9241 28.9257 19.9931 29.0438 20.0912C29.1499 20.1803 29.2169 20.2634 29.315 20.3664L29.8494 20.9579C29.9035 21.024 29.9105 21.045 29.9605 21.112C31.0504 22.5822 31.6529 24.3046 31.0474 26.1991C30.7541 27.1138 30.4179 27.7313 29.8844 28.5079C29.5562 28.9853 28.9997 29.6548 28.5764 30.0642C27.8949 30.7237 26.2485 32.0097 25.545 32.1809C25.6571 32.0057 25.7221 32.0057 25.8632 31.8696C27.0692 30.7027 28.091 29.3526 28.6855 27.7273C28.8786 27.1999 29.1198 26.3112 29.1198 25.6156C29.1198 24.882 29.0988 24.5998 28.9477 24.0183C28.3682 21.7926 25.8712 20.2583 23.6064 20.9949C22.2063 21.4503 21.9131 22.0978 21.5158 22.377C21.2956 22.2229 21.0604 21.8566 20.4239 21.4553C19.9946 21.1841 19.5092 20.9849 18.9557 20.8838C17.6437 20.6437 16.5148 21.08 15.7692 21.6104C15.4279 21.8536 15.0146 22.285 14.7694 22.6282C14.1119 23.55 13.7636 24.7399 13.9287 25.9289C13.9998 26.4383 14.1299 27.285 14.324 27.6362ZM17.5296 32.2239C17.6717 32.2239 17.5796 32.2079 17.6117 32.2809L17.5296 32.2239ZM25.503 32.2319C25.503 32.1668 25.4859 32.1809 25.544 32.1809L25.503 32.2319Z" stroke="white" stroke-width="0.202994" stroke-miterlimit="2.61313"/>
<path fill-rule="evenodd" clip-rule="evenodd" d="M23.9417 12.9545C23.7105 13.1357 23.4903 13.6621 22.3114 14.3496C22.1363 14.4517 21.803 14.6349 21.6109 14.6959C21.1915 14.83 19.7674 13.7512 19.308 13.2488C19.288 13.2267 19.267 13.2027 19.249 13.1827L19.1929 13.1227C19.1899 13.1197 19.1809 13.1096 19.1739 13.1046C19.1129 12.9855 19.0318 12.8915 18.9517 12.7624C18.7085 12.3731 18.5544 12.0548 18.4573 11.5584C18.2282 10.3865 18.8386 9.07743 19.7153 8.45193C20.4809 7.9065 21.3657 7.72135 22.2984 7.97055C22.5796 8.04561 22.8518 8.18072 23.077 8.31682C24.0168 8.88528 24.7283 10.2243 24.5722 11.2952C24.4001 12.4641 24.0268 12.6423 23.9417 12.9545ZM18.3523 13.7902C18.6865 14.2065 19.6443 15.1172 20.0786 15.2393C19.9916 15.3634 19.7784 15.4165 19.6153 15.4855C17.5126 16.3672 16.4427 16.8767 14.5052 18.2227C13.7926 18.7181 13.2091 19.3136 12.6087 19.9361C12.4686 20.0812 12.4085 20.1733 12.2804 20.3244C11.6399 21.076 11.0604 22.2419 10.8313 23.2357C10.498 24.6809 10.6681 26.2171 11.3116 27.5512C11.3807 27.6943 11.4838 27.9505 11.5768 28.0526C12.0062 29.0454 13.2282 30.4985 14.0438 31.1851C15.0396 32.0237 15.7802 32.6252 17.0382 33.2117C19.0698 34.1584 21.3266 34.5387 23.6445 34.0193C25.1997 33.6711 26.8781 32.8624 28.129 31.8736L29.5422 30.6426C29.6873 30.5105 29.7313 30.4205 29.8514 30.2773C30.4669 29.5478 30.7561 29.2735 31.2826 28.3348C32.4125 26.3222 32.7567 24.2575 31.7109 21.9027L31.2265 21.034C31.0884 20.8198 30.8242 20.4155 30.6421 20.2593C30.4219 19.8851 29.8394 19.3576 29.4821 19.0324C29.341 18.9043 29.2099 18.7792 29.0568 18.6601L27.4445 17.5092C26.4227 16.8386 24.5672 15.9509 23.4723 15.5156C23.2852 15.4405 23.011 15.3775 22.9149 15.2393C23.3542 15.1172 24.264 14.2375 24.6092 13.8312C24.9695 13.4089 25.53 12.3791 25.586 11.6705C25.8833 10.3414 25.1737 8.6601 24.2179 7.81342C20.8412 4.82604 15.7912 8.64308 17.8318 12.9465C18.072 13.4529 18.2612 13.6181 18.3523 13.7912V13.7902ZM28.011 25.6587C28.011 27.0328 27.1453 28.604 26.3616 29.6378L25.618 30.5365L24.363 31.6745C23.8446 32.1208 23.014 32.6703 22.3935 32.9245C21.1105 33.4509 19.9105 32.6412 18.9808 31.9106C18.068 31.1941 17.2694 30.4455 16.5608 29.4967C15.9854 28.7261 15.8182 28.3488 15.4639 27.5482C15.4589 27.5362 15.4429 27.5031 15.4379 27.4931C15.4029 27.4271 15.4179 27.4511 15.3929 27.4221C15.2828 26.8516 15.1707 26.8606 15.0396 25.8858C14.9625 25.3104 15.0086 24.7379 15.1707 24.2515C15.2648 23.9723 15.3298 23.8422 15.4619 23.61C16.6529 21.5224 19.4571 21.4473 20.7892 23.3098L21.2976 24.1985C21.3857 24.3726 21.3687 24.3796 21.5168 24.4847C21.7169 24.3446 21.9671 23.7581 22.1092 23.5129C22.9059 22.1469 24.8314 21.4313 26.4617 22.4491C26.6649 22.5762 26.7409 22.6423 26.9141 22.7934C27.4875 23.2978 27.9529 24.0924 28.009 24.9161C28.04 25.3884 28.011 25.3244 28.011 25.6587ZM14.324 27.6362C14.3781 28.2237 15.2708 29.6138 15.6691 30.1723C16.2206 30.9469 17.4796 32.1448 17.5306 32.2239C17.0762 32.1128 15.6911 31.1741 15.2418 30.7908C14.7194 30.3464 14.243 29.9281 13.8196 29.3976C13.4493 28.9353 13.2172 28.7141 12.8519 28.1306C12.6857 27.8654 12.5446 27.5972 12.3925 27.329C11.9001 26.2531 11.5178 25.1943 11.819 23.6691C11.9842 22.8334 12.3735 22.0278 12.8379 21.3812C13.4854 20.4795 13.5584 20.4665 14.4381 19.6579L16.3767 18.2898L19.283 16.8156C19.8955 16.5284 20.58 16.2912 21.2045 16.031C21.3757 15.9599 21.4657 15.9149 21.6339 15.9709L23.1831 16.5904C25.2878 17.4711 26.9811 18.3338 28.7555 19.833C28.8636 19.9241 28.9257 19.9931 29.0438 20.0912C29.1499 20.1803 29.2169 20.2634 29.315 20.3664L29.8494 20.9579C29.9035 21.024 29.9105 21.045 29.9605 21.112C31.0504 22.5822 31.6529 24.3046 31.0474 26.1991C30.7541 27.1138 30.4179 27.7313 29.8844 28.5079C29.5562 28.9853 28.9997 29.6548 28.5764 30.0642C27.8949 30.7237 26.2485 32.0097 25.545 32.1809C25.6571 32.0057 25.7221 32.0057 25.8632 31.8696C27.0692 30.7027 28.091 29.3526 28.6855 27.7273C28.8786 27.1999 29.1198 26.3112 29.1198 25.6156C29.1198 24.882 29.0988 24.5998 28.9477 24.0184C28.3682 21.7926 25.8712 20.2583 23.6064 20.9949C22.2063 21.4503 21.9131 22.0978 21.5158 22.377C21.2956 22.2229 21.0604 21.8566 20.4239 21.4553C19.9946 21.1841 19.5092 20.9849 18.9557 20.8838C17.6437 20.6437 16.5148 21.08 15.7692 21.6104C15.4279 21.8536 15.0146 22.285 14.7694 22.6282C14.1119 23.55 13.7636 24.7399 13.9287 25.9289C13.9998 26.4383 14.1299 27.285 14.324 27.6362ZM17.5296 32.2239C17.6717 32.2239 17.5796 32.2079 17.6117 32.2809L17.5296 32.2239ZM25.503 32.2319C25.503 32.1668 25.4859 32.1809 25.544 32.1809L25.503 32.2319Z" fill="white"/>
</g>
<defs>
<clipPath id="clip0_757_7044">
<rect width="21.7073" height="27.5396" fill="white" transform="translate(10.6464 6.73022)"/>
</clipPath>
</defs>
</svg>
