<svg width="11" height="15" viewBox="0 0 11 15" fill="none" xmlns="http://www.w3.org/2000/svg">
<path d="M6.875 15H1.25C1.05109 15 0.860322 14.921 0.71967 14.7803C0.579018 14.6397 0.5 14.4489 0.5 14.25V0.75C0.5 0.551088 0.579018 0.360322 0.71967 0.21967C0.860322 0.0790179 1.05109 3.34607e-07 1.25 3.34607e-07H5.375C6.18748 -0.000326842 6.98196 0.239287 7.65877 0.688779C8.33558 1.13827 8.86458 1.77763 9.1794 2.52663C9.49422 3.27563 9.58085 4.10092 9.4284 4.89897C9.27596 5.69702 8.89123 6.43227 8.3225 7.0125C9.22736 7.35172 9.9844 7.99785 10.4616 8.83818C10.9387 9.67851 11.1057 10.6597 10.9334 11.6105C10.7611 12.5614 10.2604 13.4216 9.51869 14.041C8.77699 14.6605 7.84135 14.9999 6.875 15ZM2 13.5H6.875C7.57119 13.5 8.23887 13.2234 8.73116 12.7312C9.22344 12.2389 9.5 11.5712 9.5 10.875C9.5 10.1788 9.22344 9.51112 8.73116 9.01884C8.23887 8.52656 7.57119 8.25 6.875 8.25H2V13.5ZM2 6.75H5.375C6.07119 6.75 6.73887 6.47344 7.23116 5.98115C7.72344 5.48887 8 4.82119 8 4.125C8 3.42881 7.72344 2.76113 7.23116 2.26884C6.73887 1.77656 6.07119 1.5 5.375 1.5H2V6.75Z" fill="#252525"/>
</svg>
