<svg width="38" height="38" viewBox="0 0 38 38" fill="none" xmlns="http://www.w3.org/2000/svg">
<path d="M15.4818 33.25H22.5188C27.4606 33.25 29.9313 33.25 31.7063 32.0856C32.4745 31.5815 33.1343 30.9337 33.6477 30.1794C34.8337 28.4368 34.8337 26.0108 34.8337 21.159C34.8337 16.3074 34.8337 13.8814 33.6477 12.1388C33.1343 11.3844 32.4745 10.7366 31.7063 10.2326C30.5656 9.48437 29.1379 9.21695 26.9518 9.12136C25.9086 9.12136 25.0105 8.34524 24.8059 7.3409C24.4989 5.83441 23.1517 4.75 21.587 4.75H16.4136C14.8489 4.75 13.5016 5.83441 13.1948 7.3409C12.9902 8.34524 12.092 9.12136 11.0488 9.12136C8.86277 9.21695 7.43495 9.48437 6.29446 10.2326C5.52608 10.7366 4.86635 11.3844 4.35294 12.1388C3.16699 13.8814 3.16699 16.3074 3.16699 21.159C3.16699 26.0108 3.16699 28.4368 4.35294 30.1794C4.86635 30.9337 5.52608 31.5815 6.29446 32.0856C8.06937 33.25 10.5402 33.25 15.4818 33.25Z" fill="#9F88C6"/>
<path d="M27.7969 14.6814C27.0683 14.6814 26.4775 15.2614 26.4775 15.9768C26.4775 16.6923 27.0683 17.2723 27.7969 17.2723H29.5562C30.285 17.2723 30.8757 16.6923 30.8757 15.9768C30.8757 15.2614 30.285 14.6814 29.5562 14.6814H27.7969Z" fill="white"/>
<path fill-rule="evenodd" clip-rule="evenodd" d="M19.0006 14.6814C15.357 14.6814 12.4033 17.5813 12.4033 21.1587C12.4033 24.7359 15.357 27.636 19.0006 27.636C22.644 27.636 25.5977 24.7359 25.5977 21.1587C25.5977 17.5813 22.644 14.6814 19.0006 14.6814ZM19.0006 17.2723C16.8144 17.2723 15.0422 19.0124 15.0422 21.1587C15.0422 23.3051 16.8144 25.045 19.0006 25.045C21.1867 25.045 22.959 23.3051 22.959 21.1587C22.959 19.0124 21.1867 17.2723 19.0006 17.2723Z" fill="white"/>
</svg>
