<svg width="22" height="22" viewBox="0 0 22 22" fill="none" xmlns="http://www.w3.org/2000/svg">
<path fill-rule="evenodd" clip-rule="evenodd" d="M1.93333 1.93333H19.3333V19.3333H1.93333V1.93333ZM0 1.93333C0 0.865573 0.865592 0 1.93333 0H19.3333C20.4011 0 21.2667 0.865592 21.2667 1.93333V19.3333C21.2667 20.4011 20.4011 21.2667 19.3333 21.2667H1.93333C0.865573 21.2667 0 20.4011 0 19.3333V1.93333ZM16.1429 6.78803C16.4449 6.34785 16.333 5.7461 15.8928 5.44402C15.4526 5.14191 14.8509 5.25385 14.5488 5.69403L8.97159 13.8206L6.1815 10.4572C5.84064 10.0463 5.23121 9.98951 4.82032 10.3304C4.40941 10.6712 4.35265 11.2807 4.6935 11.6915L8.30057 16.0397C8.49406 16.2731 8.78578 16.402 9.08854 16.3883C9.3913 16.3744 9.67009 16.2195 9.84157 15.9695L16.1429 6.78803Z" fill="#252525" fill-opacity="0.5"/>
</svg>
