<svg width="23" height="24" viewBox="0 0 23 24" fill="none" xmlns="http://www.w3.org/2000/svg">
<path d="M8.77845 10.9171C8.68262 10.9075 8.56762 10.9075 8.4622 10.9171C6.18137 10.8404 4.37012 8.97167 4.37012 6.67167C4.37012 4.32375 6.26762 2.41667 8.62512 2.41667C10.9731 2.41667 12.8802 4.32375 12.8802 6.67167C12.8706 8.97167 11.0593 10.8404 8.77845 10.9171Z" stroke="#62B2FD" stroke-width="1.85223" stroke-linecap="round" stroke-linejoin="round"/>
<path d="M15.7261 4.33333C17.5853 4.33333 19.0803 5.83792 19.0803 7.6875C19.0803 9.49875 17.6428 10.9746 15.8507 11.0417C15.7741 11.0321 15.6878 11.0321 15.6016 11.0417" stroke="#62B2FD" stroke-width="1.85223" stroke-linecap="round" stroke-linejoin="round"/>
<path d="M3.98669 14.4533C1.66752 16.0058 1.66752 18.5358 3.98669 20.0787C6.62211 21.8421 10.9442 21.8421 13.5796 20.0787C15.8988 18.5262 15.8988 15.9962 13.5796 14.4533C10.9538 12.6996 6.63169 12.6996 3.98669 14.4533Z" stroke="#62B2FD" stroke-width="1.85223" stroke-linecap="round" stroke-linejoin="round"/>
<path d="M17.5759 19.6667C18.2659 19.5229 18.9176 19.245 19.4543 18.8329C20.9493 17.7117 20.9493 15.8621 19.4543 14.7408C18.9272 14.3383 18.2851 14.07 17.6047 13.9167" stroke="#62B2FD" stroke-width="1.85223" stroke-linecap="round" stroke-linejoin="round"/>
</svg>
