<svg width="52" height="52" viewBox="0 0 52 52" fill="none" xmlns="http://www.w3.org/2000/svg">
<rect x="0.583313" width="51.4167" height="51.4167" rx="8" fill="#441890"/>
<path d="M22.375 17.875V15.9167C22.375 14.0703 22.375 13.1472 22.9486 12.5736C23.5222 12 24.4453 12 26.2916 12H36.0833C37.9296 12 38.8528 12 39.4264 12.5736C40 13.1472 40 14.0703 40 15.9167V25.7083C40 27.5546 40 28.4778 39.4264 29.0514C38.8528 29.625 37.9296 29.625 36.0833 29.625H34.125M16.5 39.4167H26.2916C28.138 39.4167 29.0611 39.4167 29.6347 38.8431C30.2083 38.2695 30.2083 37.3463 30.2083 35.5V25.7083C30.2083 23.862 30.2083 22.9389 29.6347 22.3653C29.0611 21.7917 28.138 21.7917 26.2916 21.7917H16.5C14.6536 21.7917 13.7305 21.7917 13.1569 22.3653C12.5833 22.9389 12.5833 23.862 12.5833 25.7083V35.5C12.5833 37.3463 12.5833 38.2695 13.1569 38.8431C13.7305 39.4167 14.6536 39.4167 16.5 39.4167Z" stroke="white" stroke-width="2.5" stroke-linecap="round" stroke-linejoin="round"/>
</svg>
