<svg width="50" height="50" viewBox="0 0 50 50" fill="none" xmlns="http://www.w3.org/2000/svg">
<circle cx="25" cy="25" r="25" fill="#E9F2FF"/>
<path d="M13.5415 33.333C13.5415 33.6093 13.6513 33.8742 13.8466 34.0696C14.042 34.2649 14.3069 34.3747 14.5832 34.3747H22.9165C23.1928 34.3747 23.4577 34.2649 23.6531 34.0696C23.8484 33.8742 23.9582 33.6093 23.9582 33.333C23.9582 33.0567 23.8484 32.7918 23.6531 32.5964C23.4577 32.4011 23.1928 32.2913 22.9165 32.2913H15.6988C15.9516 30.5568 16.8198 28.971 18.1449 27.8235C19.47 26.6761 21.1636 26.0435 22.9165 26.0413C24.143 26.052 25.3346 25.6332 26.2848 24.8575C27.235 24.0818 27.8838 22.9981 28.1189 21.7942C28.3539 20.5904 28.1604 19.3422 27.5718 18.2661C26.9832 17.19 26.0367 16.3537 24.8962 15.9021C23.7557 15.4506 22.4933 15.4123 21.3275 15.7939C20.1618 16.1755 19.1663 16.9529 18.5136 17.9914C17.8609 19.0299 17.5921 20.264 17.7537 21.4799C17.9154 22.6958 18.4974 23.8168 19.3988 24.6486C17.6698 25.35 16.1892 26.5508 15.1459 28.0977C14.1026 29.6445 13.544 31.4672 13.5415 33.333ZM22.9165 17.708C23.5346 17.708 24.1388 17.8913 24.6527 18.2347C25.1666 18.578 25.5671 19.0661 25.8036 19.6371C26.0402 20.2081 26.102 20.8365 25.9815 21.4427C25.8609 22.0489 25.5633 22.6057 25.1262 23.0427C24.6892 23.4798 24.1324 23.7774 23.5262 23.898C22.92 24.0185 22.2916 23.9567 21.7206 23.7201C21.1496 23.4836 20.6615 23.0831 20.3182 22.5692C19.9748 22.0553 19.7915 21.4511 19.7915 20.833C19.7915 20.0042 20.1207 19.2093 20.7068 18.6233C21.2928 18.0372 22.0877 17.708 22.9165 17.708ZM36.153 27.8195L33.7644 30.208L36.153 32.5965C36.2525 32.6926 36.3318 32.8076 36.3864 32.9347C36.441 33.0618 36.4697 33.1984 36.4709 33.3368C36.4721 33.4751 36.4458 33.6122 36.3934 33.7402C36.341 33.8683 36.2637 33.9846 36.1659 34.0824C36.0681 34.1802 35.9518 34.2575 35.8237 34.3099C35.6957 34.3623 35.5586 34.3886 35.4203 34.3874C35.2819 34.3862 35.1453 34.3575 35.0182 34.3029C34.8911 34.2483 34.7761 34.169 34.68 34.0695L32.2915 31.6809L29.903 34.0695C29.7065 34.2592 29.4434 34.3642 29.1703 34.3618C28.8971 34.3595 28.6359 34.2499 28.4427 34.0568C28.2496 33.8636 28.14 33.6024 28.1377 33.3293C28.1353 33.0561 28.2403 32.793 28.43 32.5965L30.8186 30.208L28.43 27.8195C28.2403 27.623 28.1353 27.3599 28.1377 27.0868C28.14 26.8136 28.2496 26.5524 28.4427 26.3592C28.6359 26.1661 28.8971 26.0566 29.1703 26.0542C29.4434 26.0518 29.7065 26.1568 29.903 26.3465L32.2915 28.7351L34.68 26.3465C34.8765 26.1568 35.1396 26.0518 35.4128 26.0542C35.6859 26.0566 35.9471 26.1661 36.1403 26.3592C36.3334 26.5524 36.443 26.8136 36.4453 27.0868C36.4477 27.3599 36.3427 27.623 36.153 27.8195Z" fill="#546FFF"/>
</svg>
