<svg width="25" height="25" viewBox="0 0 25 25" fill="none" xmlns="http://www.w3.org/2000/svg">
<g clip-path="url(#clip0_316_3394)">
<path fill-rule="evenodd" clip-rule="evenodd" d="M10.6485 11.5264L13.4744 14.3523C13.8013 13.9962 14.0008 13.5214 14.0008 13C14.0008 11.8954 13.1054 11 12.0008 11C11.4794 11 11.0046 11.1995 10.6485 11.5264Z" fill="black"/>
<path fill-rule="evenodd" clip-rule="evenodd" d="M14.1212 19.2422C13.4439 19.4051 12.7344 19.5 12.0004 19.5C9.74556 19.5 7.72284 18.6047 6.14838 17.592C4.56797 16.5755 3.36746 15.3948 2.73671 14.7147C2.11889 14.0485 2.06109 13.0457 2.61856 12.3145C3.05449 11.7428 3.80519 10.8464 4.83111 9.95209L6.24913 11.3701C5.35771 12.1309 4.687 12.911 4.27916 13.436C4.86152 14.0547 5.90064 15.0547 7.23028 15.9099C8.62583 16.8075 10.2704 17.5 12.0004 17.5C12.1236 17.5 12.2464 17.4965 12.3687 17.4896L14.1212 19.2422ZM15.6657 16.544L17.1428 18.0211C17.3882 17.8821 17.6249 17.7383 17.8523 17.592C19.4327 16.5755 20.6333 15.3948 21.264 14.7147C21.8818 14.0485 21.9396 13.0457 21.3822 12.3145C20.8091 11.563 19.6923 10.2506 18.1214 9.1192C16.5494 7.98702 14.4709 7 12.0004 7C10.2291 7 8.65942 7.50733 7.33341 8.21175L8.82725 9.70559C9.78578 9.27526 10.849 9 12.0004 9C13.9224 9 15.5987 9.76704 16.9525 10.7421C18.2472 11.6745 19.1996 12.7641 19.7216 13.436C19.1392 14.0547 18.1001 15.0547 16.7704 15.9099C16.4173 16.137 16.0482 16.3511 15.6657 16.544Z" fill="black"/>
<path d="M3.99994 6L18.9999 21" stroke="black" stroke-width="2" stroke-linecap="round"/>
</g>
<defs>
<clipPath id="clip0_316_3394">
<rect width="24" height="24" fill="white" transform="translate(0.25 0.814453)"/>
</clipPath>
</defs>
</svg>
