<svg width="21" height="17" viewBox="0 0 21 17" fill="none" xmlns="http://www.w3.org/2000/svg">
<path fill-rule="evenodd" clip-rule="evenodd" d="M10.25 2.60449C7.01722 2.60449 4.20965 4.91508 2.4548 8.39999C2.42609 8.45709 2.40483 8.49929 2.3869 8.53609C2.37109 8.56849 2.36128 8.58979 2.35486 8.60449C2.36128 8.61919 2.37109 8.64049 2.3869 8.67289C2.40483 8.70969 2.42609 8.75189 2.4548 8.80899C4.20965 12.2939 7.01722 14.6045 10.25 14.6045C13.4828 14.6045 16.2904 12.2939 18.0452 8.80899C18.0739 8.75189 18.0952 8.70969 18.1131 8.67289C18.1289 8.64049 18.1388 8.61919 18.1452 8.60449C18.1388 8.58979 18.1289 8.56849 18.1131 8.53609C18.0952 8.49929 18.0739 8.45709 18.0452 8.39999C16.2904 4.91508 13.4828 2.60449 10.25 2.60449ZM0.668488 7.50049C2.60818 3.64852 5.9698 0.604492 10.25 0.604492C14.5302 0.604492 17.8919 3.64852 19.8315 7.50049C19.8386 7.51449 19.8458 7.52869 19.8532 7.54339C19.9445 7.72349 20.0624 7.95599 20.1152 8.24259C20.1571 8.47059 20.1571 8.73839 20.1152 8.96639C20.0624 9.25299 19.9445 9.48559 19.8532 9.66559C19.8458 9.68029 19.8386 9.69449 19.8315 9.70849C17.8919 13.5605 14.5302 16.6045 10.25 16.6045C5.9698 16.6045 2.60818 13.5605 0.668488 9.70849C0.661478 9.69449 0.654239 9.68029 0.646819 9.66559C0.555499 9.48549 0.437589 9.25299 0.384849 8.96639C0.342909 8.73839 0.342909 8.47059 0.384849 8.24259C0.437589 7.95599 0.555499 7.72349 0.646819 7.54339C0.654239 7.52869 0.661478 7.51449 0.668488 7.50049ZM10.25 6.60449C9.1454 6.60449 8.25 7.49989 8.25 8.60449C8.25 9.70909 9.1454 10.6045 10.25 10.6045C11.3546 10.6045 12.25 9.70909 12.25 8.60449C12.25 7.49989 11.3546 6.60449 10.25 6.60449ZM6.25002 8.60449C6.25002 6.39535 8.04088 4.60449 10.25 4.60449C12.4592 4.60449 14.25 6.39535 14.25 8.60449C14.25 10.8136 12.4592 12.6045 10.25 12.6045C8.04088 12.6045 6.25002 10.8136 6.25002 8.60449Z" fill="#0F1729"/>
</svg>
