<svg width="17" height="18" viewBox="0 0 17 18" fill="none" xmlns="http://www.w3.org/2000/svg">
<path d="M16.5634 9.09105C16.5634 8.41352 16.5085 7.9191 16.3895 7.40637H8.65271V10.4644H13.194C13.1025 11.2244 12.6081 12.3689 11.5093 13.1379L11.4939 13.2403L13.9402 15.1354L14.1096 15.1523C15.6661 13.7148 16.5634 11.5998 16.5634 9.09105Z" fill="#4285F4"/>
<path d="M8.65241 17.1483C10.8773 17.1483 12.7451 16.4158 14.1093 15.1523L11.509 13.138C10.8132 13.6232 9.87928 13.962 8.65241 13.962C6.47331 13.962 4.62383 12.5246 3.96454 10.5377L3.8679 10.5459L1.32428 12.5145L1.29102 12.6069C2.64608 15.2988 5.42949 17.1483 8.65241 17.1483Z" fill="#34A853"/>
<path d="M3.9647 10.5377C3.79074 10.025 3.69006 9.47558 3.69006 8.90794C3.69006 8.34024 3.79074 7.7909 3.95555 7.27818L3.95094 7.16898L1.37545 5.16882L1.29118 5.2089C0.732693 6.32594 0.412231 7.58033 0.412231 8.90794C0.412231 10.2355 0.732693 11.4899 1.29118 12.6069L3.9647 10.5377Z" fill="#FBBC05"/>
<path d="M8.65241 3.85385C10.1997 3.85385 11.2435 4.52223 11.8387 5.08078L14.1643 2.81009C12.736 1.48248 10.8773 0.667603 8.65241 0.667603C5.42949 0.667603 2.64608 2.51709 1.29102 5.20891L3.95538 7.27818C4.62383 5.29135 6.47331 3.85385 8.65241 3.85385Z" fill="#EB4335"/>
</svg>
