<svg width="39" height="40" viewBox="0 0 39 40" fill="none" xmlns="http://www.w3.org/2000/svg">
<rect y="0.209961" width="39" height="39" rx="9" fill="#5051F9" fill-opacity="0.17"/>
<path d="M21.25 27.8038H17.75V29.1163H21.25V27.8038ZM11.4062 21.46V17.96H10.0937V21.46H11.4062ZM27.5937 21.0775V21.46H28.9062V21.0775H27.5937ZM22.0298 13.2447L25.4937 16.3623L26.3717 15.3867L22.9078 12.2692L22.0298 13.2447ZM28.9062 21.0775C28.9062 19.6002 28.9194 18.6648 28.5467 17.8279L27.3478 18.3618C27.5805 18.8844 27.5937 19.4843 27.5937 21.0775H28.9062ZM25.4937 16.3623C26.6779 17.4281 27.115 17.8392 27.3478 18.3618L28.5467 17.8279C28.1739 16.9909 27.4698 16.375 26.3717 15.3867L25.4937 16.3623ZM17.776 11.6163C19.1601 11.6163 19.6824 11.6264 20.1479 11.805L20.6181 10.5796C19.8728 10.2936 19.0607 10.3038 17.776 10.3038V11.6163ZM22.9078 12.2692C21.9576 11.4139 21.3635 10.8656 20.6181 10.5796L20.1479 11.805C20.6136 11.9837 21.0063 12.3236 22.0298 13.2447L22.9078 12.2692ZM17.75 27.8038C16.0815 27.8038 14.8962 27.8024 13.997 27.6814C13.1166 27.5631 12.6094 27.3411 12.2391 26.9708L11.3111 27.899C11.9659 28.5537 12.7962 28.8443 13.8221 28.9823C14.8291 29.1177 16.1186 29.1163 17.75 29.1163V27.8038ZM10.0937 21.46C10.0937 23.0914 10.0923 24.3809 10.2277 25.3879C10.3656 26.4137 10.6562 27.2441 11.3111 27.899L12.2391 26.9708C11.8688 26.6005 11.6469 26.0933 11.5285 25.2131C11.4076 24.3138 11.4062 23.1285 11.4062 21.46H10.0937ZM21.25 29.1163C22.8813 29.1163 24.1709 29.1177 25.1778 28.9823C26.2037 28.8443 27.0341 28.5537 27.6889 27.899L26.7608 26.9708C26.3905 27.3411 25.8833 27.5631 25.003 27.6814C24.1038 27.8024 22.9184 27.8038 21.25 27.8038V29.1163ZM27.5937 21.46C27.5937 23.1285 27.5923 24.3138 27.4714 25.2131C27.3531 26.0933 27.1311 26.6005 26.7608 26.9708L27.6889 27.899C28.3437 27.2441 28.6343 26.4137 28.7723 25.3879C28.9076 24.3809 28.9062 23.0914 28.9062 21.46H27.5937ZM11.4062 17.96C11.4062 16.2915 11.4076 15.1062 11.5285 14.207C11.6469 13.3267 11.8688 12.8195 12.2391 12.4492L11.3111 11.5211C10.6562 12.1759 10.3656 13.0062 10.2277 14.0321C10.0923 15.0391 10.0937 16.3286 10.0937 17.96H11.4062ZM17.776 10.3038C16.1359 10.3038 14.8401 10.3024 13.829 10.4377C12.7995 10.5755 11.9664 10.8658 11.3111 11.5211L12.2391 12.4492C12.6089 12.0794 13.1177 11.8571 14.0031 11.7386C14.9069 11.6176 16.0989 11.6163 17.776 11.6163V10.3038Z" fill="#5051F9"/>
<path d="M14.25 21.8975H21.25" stroke="#5051F9" stroke-width="1.3125" stroke-linecap="round"/>
<path d="M14.25 24.96H19.0625" stroke="#5051F9" stroke-width="1.3125" stroke-linecap="round"/>
<path d="M20.375 11.3975V13.585C20.375 15.6474 20.375 16.6785 21.0157 17.3193C21.6565 17.96 22.6877 17.96 24.75 17.96H28.25" stroke="#5051F9" stroke-width="1.3125"/>
</svg>
