<svg width="12" height="13" viewBox="0 0 12 13" fill="none" xmlns="http://www.w3.org/2000/svg">
<path d="M10.6021 0.111105H5.92546C5.82797 0.101778 5.72961 0.112929 5.63669 0.143844C5.54376 0.174758 5.45832 0.224754 5.38585 0.290623C5.31338 0.356493 5.25547 0.436782 5.21585 0.526342C5.17622 0.615902 5.15575 0.712754 5.15575 0.810688C5.15575 0.908622 5.17622 1.00547 5.21585 1.09503C5.25547 1.18459 5.31338 1.26488 5.38585 1.33075C5.45832 1.39662 5.54376 1.44662 5.63669 1.47753C5.72961 1.50845 5.82797 1.5196 5.92546 1.51027H7.28629L3.3763 11.3236H1.68963C1.59214 11.3143 1.49378 11.3254 1.40085 11.3563C1.30793 11.3873 1.22249 11.4373 1.15002 11.5031C1.07754 11.569 1.01964 11.6493 0.980014 11.7388C0.94039 11.8284 0.919922 11.9253 0.919922 12.0232C0.919922 12.1211 0.94039 12.218 0.980014 12.3075C1.01964 12.3971 1.07754 12.4774 1.15002 12.5433C1.22249 12.6091 1.30793 12.6591 1.40085 12.69C1.49378 12.7209 1.59214 12.7321 1.68963 12.7228H6.37268C6.47017 12.7321 6.56853 12.7209 6.66146 12.69C6.75439 12.6591 6.83983 12.6091 6.9123 12.5433C6.98477 12.4774 7.04268 12.3971 7.0823 12.3075C7.12192 12.218 7.14239 12.1211 7.14239 12.0232C7.14239 11.9253 7.12192 11.8284 7.0823 11.7388C7.04268 11.6493 6.98477 11.569 6.9123 11.5031C6.83983 11.4373 6.75439 11.3873 6.66146 11.3563C6.56853 11.3254 6.47017 11.3143 6.37268 11.3236H4.90963L8.82602 1.51027H10.6021C10.6996 1.5196 10.798 1.50845 10.8909 1.47753C10.9838 1.44662 11.0693 1.39662 11.1417 1.33075C11.2142 1.26488 11.2721 1.18459 11.3117 1.09503C11.3514 1.00547 11.3718 0.908622 11.3718 0.810688C11.3718 0.712754 11.3514 0.615902 11.3117 0.526342C11.2721 0.436782 11.2142 0.356493 11.1417 0.290623C11.0693 0.224754 10.9838 0.174758 10.8909 0.143844C10.798 0.112929 10.6996 0.101778 10.6021 0.111105Z" fill="#252525"/>
</svg>
