<svg width="62" height="43" viewBox="0 0 62 43" fill="none" xmlns="http://www.w3.org/2000/svg">
<path fill-rule="evenodd" clip-rule="evenodd" d="M22.5691 33.5076V35.1358V36.7642H21.865V36.3688C21.6417 36.6621 21.3029 36.8461 20.8424 36.8461C19.9343 36.8461 19.2225 36.131 19.2225 35.1358C19.2225 34.1415 19.9343 33.4256 20.8424 33.4256C21.3029 33.4256 21.6417 33.6097 21.865 33.9029V33.5076H22.5691ZM20.9299 34.0933C20.3205 34.0933 19.9475 34.5635 19.9475 35.1358C19.9475 35.7083 20.3205 36.1785 20.9299 36.1785C21.5123 36.1785 21.9054 35.7286 21.9054 35.1358C21.9054 34.5432 21.5123 34.0933 20.9299 34.0933ZM46.3618 35.1358C46.3618 34.5635 46.7348 34.0933 47.3442 34.0933C47.9273 34.0933 48.3197 34.5432 48.3197 35.1358C48.3197 35.7286 47.9273 36.1785 47.3442 36.1785C46.7348 36.1785 46.3618 35.7083 46.3618 35.1358ZM48.9843 32.1997V35.1358V36.7642H48.2794V36.3688C48.056 36.6621 47.7172 36.8461 47.2566 36.8461C46.3486 36.8461 45.6368 36.131 45.6368 35.1358C45.6368 34.1415 46.3486 33.4256 47.2566 33.4256C47.7172 33.4256 48.056 33.6097 48.2794 33.9029V32.1997H48.9843ZM31.3088 34.0597C31.7624 34.0597 32.0539 34.3458 32.1284 34.8497H30.4481C30.5233 34.3795 30.8071 34.0597 31.3088 34.0597ZM29.7099 35.1358C29.7099 34.1205 30.3736 33.4256 31.3227 33.4256C32.23 33.4256 32.8534 34.1205 32.8603 35.1358C32.8603 35.231 32.8534 35.32 32.8464 35.4081H30.4419C30.5435 35.9945 30.9567 36.2059 31.4103 36.2059C31.7352 36.2059 32.0811 36.0826 32.3525 35.8651L32.6975 36.3899C32.3044 36.7236 31.8578 36.8461 31.3701 36.8461C30.4008 36.8461 29.7099 36.1716 29.7099 35.1358ZM39.8244 35.1358C39.8244 34.5635 40.1973 34.0933 40.8068 34.0933C41.389 34.0933 41.7823 34.5432 41.7823 35.1358C41.7823 35.7286 41.389 36.1785 40.8068 36.1785C40.1973 36.1785 39.8244 35.7083 39.8244 35.1358ZM42.446 33.5076V35.1358V36.7642H41.7419V36.3688C41.5178 36.6621 41.1798 36.8461 40.7191 36.8461C39.8111 36.8461 39.0993 36.131 39.0993 35.1358C39.0993 34.1415 39.8111 33.4256 40.7191 33.4256C41.1798 33.4256 41.5178 33.6097 41.7419 33.9029V33.5076H42.446ZM35.848 35.1358C35.848 36.124 36.5319 36.8461 37.5756 36.8461C38.0633 36.8461 38.3882 36.737 38.7403 36.4577L38.4022 35.8854C38.1379 36.0764 37.8602 36.1785 37.5547 36.1785C36.9925 36.1716 36.5793 35.7629 36.5793 35.1358C36.5793 34.5089 36.9925 34.1002 37.5547 34.0933C37.8602 34.0933 38.1379 34.1953 38.4022 34.3864L38.7403 33.814C38.3882 33.5348 38.0633 33.4256 37.5756 33.4256C36.5319 33.4256 35.848 34.1478 35.848 35.1358ZM44.072 33.9029C44.255 33.6167 44.5194 33.4256 44.9258 33.4256C45.0684 33.4256 45.2716 33.453 45.4274 33.5145L45.2103 34.1821C45.0614 34.1205 44.9125 34.1002 44.7699 34.1002C44.3092 34.1002 44.079 34.3997 44.079 34.9386V36.7642H43.3741V33.5076H44.072V33.9029ZM26.0516 33.7665C25.7126 33.5419 25.2459 33.4256 24.731 33.4256C23.9106 33.4256 23.3825 33.821 23.3825 34.4683C23.3825 34.9994 23.7757 35.3269 24.4999 35.4291L24.8325 35.4766C25.2187 35.5313 25.401 35.6334 25.401 35.8174C25.401 36.0694 25.1435 36.2128 24.6628 36.2128C24.175 36.2128 23.823 36.0561 23.5857 35.872L23.2538 36.4234C23.64 36.7096 24.1277 36.8461 24.6558 36.8461C25.5909 36.8461 26.1329 36.4031 26.1329 35.7831C26.1329 35.2107 25.7064 34.9112 25.0016 34.8091L24.6697 34.7607C24.365 34.7202 24.1207 34.6594 24.1207 34.441C24.1207 34.2024 24.351 34.0597 24.7372 34.0597C25.1505 34.0597 25.5505 34.2164 25.7468 34.3389L26.0516 33.7665ZM34.2833 33.9029C34.4655 33.6167 34.7299 33.4256 35.1362 33.4256C35.2789 33.4256 35.4821 33.453 35.6378 33.5145L35.4207 34.1821C35.2719 34.1205 35.123 34.1002 34.9803 34.1002C34.5198 34.1002 34.2895 34.3997 34.2895 34.9386V36.7642H33.5854V33.5076H34.2833V33.9029ZM29.1275 33.5076H27.9761V32.5195H27.2642V33.5076H26.6075V34.1548H27.2642V35.6405C27.2642 36.3962 27.5558 36.8461 28.3886 36.8461C28.6941 36.8461 29.0462 36.751 29.2695 36.5942L29.0663 35.9875C28.8561 36.11 28.6259 36.1716 28.4429 36.1716C28.0908 36.1716 27.9761 35.9532 27.9761 35.6264V34.1548H29.1275V33.5076ZM18.5998 34.7202V36.7642H17.888V34.9518C17.888 34.3997 17.6577 34.0933 17.177 34.0933C16.7093 34.0933 16.3844 34.3935 16.3844 34.9589V36.7642H15.6726V34.9518C15.6726 34.3997 15.4362 34.0933 14.9686 34.0933C14.487 34.0933 14.1754 34.3935 14.1754 34.9589V36.7642H13.4644V33.5076H14.1692V33.9091C14.4336 33.5279 14.7717 33.4256 15.1175 33.4256C15.6122 33.4256 15.9643 33.6441 16.1876 34.005C16.486 33.5481 16.9125 33.4186 17.3259 33.4256C18.1121 33.4327 18.5998 33.9505 18.5998 34.7202Z" fill="#231F20"/>
<path d="M36.489 27.9737H25.8179V8.68628H36.489V27.9737Z" fill="#FF5F00"/>
<path d="M26.4948 18.3303C26.4948 14.4178 28.3162 10.9326 31.1527 8.68662C29.0785 7.04424 26.4607 6.06396 23.6158 6.06396C16.8806 6.06396 11.4209 11.5557 11.4209 18.3303C11.4209 25.1049 16.8806 30.5967 23.6158 30.5967C26.4607 30.5967 29.0785 29.6164 31.1527 27.974C28.3162 25.7281 26.4948 22.2429 26.4948 18.3303Z" fill="#EB001B"/>
<path d="M50.8855 18.3303C50.8855 25.1049 45.4258 30.5967 38.6906 30.5967C35.8456 30.5967 33.2279 29.6164 31.1528 27.974C33.99 25.7281 35.8115 22.2429 35.8115 18.3303C35.8115 14.4178 33.99 10.9326 31.1528 8.68662C33.2279 7.04424 35.8456 6.06396 38.6906 6.06396C45.4258 6.06396 50.8855 11.5557 50.8855 18.3303Z" fill="#F79E1B"/>
</svg>
