<svg width="21" height="20" viewBox="0 0 21 20" fill="none" xmlns="http://www.w3.org/2000/svg">
<path d="M14.69 0H6.31C2.67 0 0.5 2.17 0.5 5.81V14.18C0.5 17.83 2.67 20 6.31 20H14.68C18.32 20 20.49 17.83 20.49 14.19V5.81C20.5 2.17 18.33 0 14.69 0ZM9.45 15.51C9.16 15.8 8.61 16.08 8.21 16.14L5.75 16.49C5.66 16.5 5.57 16.51 5.48 16.51C5.07 16.51 4.69 16.37 4.42 16.1C4.09 15.77 3.95 15.29 4.03 14.76L4.38 12.3C4.44 11.89 4.71 11.35 5.01 11.06L9.47 6.6C9.55 6.81 9.63 7.02 9.74 7.26C9.84 7.47 9.95 7.69 10.07 7.89C10.17 8.06 10.28 8.22 10.37 8.34C10.48 8.51 10.61 8.67 10.69 8.76C10.74 8.83 10.78 8.88 10.8 8.9C11.05 9.2 11.34 9.48 11.59 9.69C11.66 9.76 11.7 9.8 11.72 9.81C11.87 9.93 12.02 10.05 12.15 10.14C12.31 10.26 12.47 10.37 12.64 10.46C12.84 10.58 13.06 10.69 13.28 10.8C13.51 10.9 13.72 10.99 13.93 11.06L9.45 15.51ZM15.87 9.09L14.95 10.02C14.89 10.08 14.81 10.11 14.73 10.11C14.7 10.11 14.66 10.11 14.64 10.1C12.61 9.52 10.99 7.9 10.41 5.87C10.38 5.76 10.41 5.64 10.49 5.57L11.42 4.64C12.94 3.12 14.39 3.15 15.88 4.64C16.64 5.4 17.01 6.13 17.01 6.89C17 7.61 16.63 8.33 15.87 9.09Z" fill="#252525"/>
</svg>
