<svg width="22" height="22" viewBox="0 0 22 22" fill="none" xmlns="http://www.w3.org/2000/svg">
<path d="M-0.000160312 20.8503C-0.000160337 20.5629 0.113975 20.2874 0.317139 20.0842C0.520304 19.8811 0.795854 19.7669 1.08317 19.7669L14.0832 19.7669C14.3705 19.7669 14.646 19.8811 14.8492 20.0842C15.0524 20.2874 15.1665 20.5629 15.1665 20.8503C15.1665 21.1376 15.0524 21.4131 14.8492 21.6163C14.646 21.8195 14.3705 21.9336 14.0832 21.9336L1.08317 21.9336C0.795855 21.9336 0.520304 21.8195 0.317139 21.6163C0.113975 21.4131 -0.000160287 21.1376 -0.000160312 20.8503ZM1.08317 15.4336L20.5832 15.4336C20.8705 15.4336 21.146 15.3195 21.3492 15.1163C21.5524 14.9131 21.6665 14.6376 21.6665 14.3503C21.6665 14.0629 21.5524 13.7874 21.3492 13.5842C21.146 13.3811 20.8705 13.2669 20.5832 13.2669L1.08317 13.2669C0.795854 13.2669 0.520303 13.3811 0.317138 13.5842C0.113975 13.7874 -0.000160905 14.0629 -0.00016088 14.3503C-0.000160855 14.6376 0.113975 14.9131 0.317138 15.1163C0.520303 15.3195 0.795854 15.4336 1.08317 15.4336ZM1.08317 8.9336L20.5832 8.93359C20.8705 8.93359 21.146 8.81946 21.3492 8.61629C21.5524 8.41313 21.6665 8.13758 21.6665 7.85026C21.6665 7.56294 21.5524 7.28739 21.3492 7.08423C21.146 6.88106 20.8705 6.76693 20.5832 6.76693L1.08317 6.76693C0.795853 6.76693 0.520302 6.88107 0.317137 7.08423C0.113974 7.28739 -0.000161474 7.56294 -0.000161448 7.85026C-0.000161423 8.13758 0.113974 8.41313 0.317138 8.61629C0.520303 8.81946 0.795853 8.9336 1.08317 8.9336ZM1.08317 2.4336L20.5832 2.43359C20.8705 2.43359 21.146 2.31946 21.3492 2.11629C21.5524 1.91313 21.6665 1.63758 21.6665 1.35026C21.6665 1.06294 21.5524 0.787392 21.3492 0.584227C21.146 0.381062 20.8705 0.266926 20.5832 0.266926L1.08317 0.266928C0.795853 0.266928 0.520302 0.381063 0.317137 0.584228C0.113974 0.787394 -0.000162042 1.06294 -0.000162017 1.35026C-0.000161992 1.63758 0.113974 1.91313 0.317137 2.11629C0.520302 2.31946 0.795853 2.4336 1.08317 2.4336Z" fill="#252525" fill-opacity="0.5"/>
</svg>
