<svg width="20" height="15" viewBox="0 0 20 15" fill="none" xmlns="http://www.w3.org/2000/svg">
<path d="M16.84 0.5H3.16C2.38753 0.501986 1.64738 0.810241 1.10186 1.35716C0.556346 1.90409 0.249997 2.64503 0.25 3.4175V11.8325C0.249997 12.605 0.556346 13.3459 1.10186 13.8928C1.64738 14.4398 2.38753 14.748 3.16 14.75H16.84C17.6125 14.748 18.3526 14.4398 18.8981 13.8928C19.4437 13.3459 19.75 12.605 19.75 11.8325V3.4175C19.75 2.64503 19.4437 1.90409 18.8981 1.35716C18.3526 0.810241 17.6125 0.501986 16.84 0.5ZM3.16 2H16.84C17.2146 2.00198 17.5733 2.1522 17.8375 2.41782C18.1017 2.68344 18.25 3.04285 18.25 3.4175V4.25H1.75V3.4175C1.74999 3.04285 1.89831 2.68344 2.16252 2.41782C2.42673 2.1522 2.78536 2.00198 3.16 2ZM16.84 13.25H3.16C2.78536 13.248 2.42673 13.0978 2.16252 12.8322C1.89831 12.5666 1.74999 12.2071 1.75 11.8325V5.75H18.25V11.8325C18.25 12.2071 18.1017 12.5666 17.8375 12.8322C17.5733 13.0978 17.2146 13.248 16.84 13.25Z" fill="#8F8F91"/>
<path d="M16 10.25H12.25C12.0511 10.25 11.8603 10.329 11.7197 10.4697C11.579 10.6103 11.5 10.8011 11.5 11C11.5 11.1989 11.579 11.3897 11.7197 11.5303C11.8603 11.671 12.0511 11.75 12.25 11.75H16C16.1989 11.75 16.3897 11.671 16.5303 11.5303C16.671 11.3897 16.75 11.1989 16.75 11C16.75 10.8011 16.671 10.6103 16.5303 10.4697C16.3897 10.329 16.1989 10.25 16 10.25Z" fill="#8F8F91"/>
</svg>
