<svg width="43" height="43" viewBox="0 0 43 43" fill="none" xmlns="http://www.w3.org/2000/svg">
<rect x="0.0859375" width="42.3249" height="42.3249" rx="9.61929" fill="#441890"/>
<path d="M25.2314 12.4666L16.5452 15.3524C10.7063 17.3051 10.7063 20.4891 16.5452 22.4322L19.1232 23.2883L19.9793 25.8663C21.9224 31.7052 25.116 31.7052 27.0591 25.8663L29.9545 17.1897C31.2435 13.2939 29.1272 11.168 25.2314 12.4666ZM25.5392 17.6418L21.8839 21.3163C21.7396 21.4606 21.5568 21.528 21.3741 21.528C21.1913 21.528 21.0085 21.4606 20.8643 21.3163C20.5853 21.0374 20.5853 20.5757 20.8643 20.2967L24.5196 16.6221C24.7985 16.3432 25.2603 16.3432 25.5392 16.6221C25.8182 16.9011 25.8182 17.3628 25.5392 17.6418Z" fill="white"/>
</svg>
