<svg width="24" height="24" viewBox="0 0 24 24" fill="none" xmlns="http://www.w3.org/2000/svg">
<path d="M16.2314 3.46661L7.5452 6.3524C1.70629 8.30512 1.70629 11.4891 7.5452 13.4322L10.1232 14.2883L10.9793 16.8663C12.9224 22.7052 16.116 22.7052 18.0591 16.8663L20.9545 8.18968C22.2435 4.29387 20.1272 2.16801 16.2314 3.46661ZM16.5392 8.64179L12.8839 12.3164C12.7396 12.4606 12.5568 12.528 12.3741 12.528C12.1913 12.528 12.0085 12.4606 11.8643 12.3164C11.5853 12.0374 11.5853 11.5757 11.8643 11.2967L15.5196 7.62215C15.7985 7.34319 16.2603 7.34319 16.5392 7.62215C16.8182 7.90111 16.8182 8.36283 16.5392 8.64179Z" fill="white"/>
</svg>
