<svg width="24" height="24" viewBox="0 0 24 24" fill="none" xmlns="http://www.w3.org/2000/svg">
<path d="M12 15C13.6569 15 15 13.6569 15 12C15 10.3431 13.6569 9 12 9C10.3431 9 9 10.3431 9 12C9 13.6569 10.3431 15 12 15Z" stroke="#8F8F91" stroke-width="1.5"/>
<path d="M13.7654 2.15227C13.3978 2.00003 12.9319 2.00003 12 2.00003C11.0681 2.00003 10.6022 2.00003 10.2346 2.15227C9.74457 2.35526 9.35522 2.74461 9.15223 3.23466C9.05957 3.45837 9.0233 3.71853 9.00911 4.09802C8.98826 4.65571 8.70226 5.17192 8.21894 5.45096C7.73564 5.72999 7.14559 5.71957 6.65219 5.45879C6.31645 5.28133 6.07301 5.18265 5.83294 5.15105C5.30704 5.08181 4.77518 5.22432 4.35436 5.54723C4.03874 5.78941 3.80577 6.19293 3.33983 6.99996C2.87389 7.807 2.64092 8.21051 2.58899 8.60494C2.51976 9.13083 2.66227 9.66269 2.98518 10.0835C3.13256 10.2756 3.3397 10.437 3.66119 10.639C4.1338 10.936 4.43789 11.4419 4.43786 12C4.43783 12.5581 4.13375 13.0639 3.66118 13.3608C3.33965 13.5629 3.13248 13.7244 2.98508 13.9165C2.66217 14.3373 2.51966 14.8691 2.5889 15.395C2.64082 15.7894 2.87379 16.193 3.33973 17C3.80568 17.807 4.03865 18.2106 4.35426 18.4527C4.77508 18.7756 5.30694 18.9181 5.83284 18.8489C6.07289 18.8173 6.31632 18.7186 6.65204 18.5412C7.14547 18.2804 7.73556 18.27 8.2189 18.549C8.70224 18.8281 8.98826 19.3443 9.00911 19.9021C9.02331 20.2815 9.05957 20.5417 9.15223 20.7654C9.35522 21.2554 9.74457 21.6448 10.2346 21.8478C10.6022 22 11.0681 22 12 22C12.9319 22 13.3978 22 13.7654 21.8478C14.2554 21.6448 14.6448 21.2554 14.8477 20.7654C14.9404 20.5417 14.9767 20.2815 14.9909 19.902C15.0117 19.3443 15.2977 18.8281 15.781 18.549C16.2643 18.2699 16.8544 18.2804 17.3479 18.5412C17.6836 18.7186 17.927 18.8172 18.167 18.8488C18.6929 18.9181 19.2248 18.7756 19.6456 18.4527C19.9612 18.2105 20.1942 17.807 20.6601 16.9999C21.1261 16.1929 21.3591 15.7894 21.411 15.395C21.4802 14.8691 21.3377 14.3372 21.0148 13.9164C20.8674 13.7243 20.6602 13.5628 20.3387 13.3608C19.8662 13.0639 19.5621 12.558 19.5621 11.9999C19.5621 11.4418 19.8662 10.9361 20.3387 10.6392C20.6603 10.4371 20.8675 10.2757 21.0149 10.0835C21.3378 9.66276 21.4803 9.1309 21.4111 8.605C21.3592 8.21058 21.1262 7.80706 20.6602 7.00003C20.1943 6.193 19.9613 5.78948 19.6457 5.5473C19.2249 5.22439 18.693 5.08188 18.1671 5.15112C17.9271 5.18272 17.6837 5.28139 17.3479 5.45883C16.8545 5.71962 16.2644 5.73005 15.7811 5.45099C15.2977 5.17194 15.0117 4.65569 14.9909 4.09797C14.9767 3.71851 14.9404 3.45836 14.8477 3.23466C14.6448 2.74461 14.2554 2.35526 13.7654 2.15227Z" stroke="#8F8F91" stroke-width="1.5"/>
</svg>
