<svg width="22" height="9" viewBox="0 0 22 9" fill="none" xmlns="http://www.w3.org/2000/svg">
<path d="M12.0832 5.89128H1.24984C0.962519 5.89128 0.686969 6.00541 0.483805 6.20858C0.28064 6.41174 0.166504 6.68729 0.166504 6.97461C0.166504 7.26193 0.28064 7.53748 0.483805 7.74064C0.686969 7.94381 0.962519 8.05794 1.24984 8.05794H12.0832C12.3705 8.05794 12.646 7.94381 12.8492 7.74064C13.0524 7.53748 13.1665 7.26193 13.1665 6.97461C13.1665 6.68729 13.0524 6.41174 12.8492 6.20858C12.646 6.00541 12.3705 5.89128 12.0832 5.89128ZM20.7498 0.474609H1.24984C0.962519 0.474609 0.686969 0.588746 0.483805 0.791911C0.28064 0.995075 0.166504 1.27062 0.166504 1.55794C0.166504 1.84526 0.28064 2.12081 0.483805 2.32397C0.686969 2.52714 0.962519 2.64128 1.24984 2.64128H20.7498C21.0372 2.64128 21.3127 2.52714 21.5159 2.32397C21.719 2.12081 21.8332 1.84526 21.8332 1.55794C21.8332 1.27062 21.719 0.995075 21.5159 0.791911C21.3127 0.588746 21.0372 0.474609 20.7498 0.474609Z" fill="#252525" fill-opacity="0.5"/>
</svg>
