<svg width="40" height="17" viewBox="0 0 40 17" fill="none" xmlns="http://www.w3.org/2000/svg">
<path d="M2.81111 6.66155C2.81111 6.21896 3.16667 6.04873 3.75556 6.04873C4.6 6.04873 5.66667 6.30975 6.51111 6.77503V4.10814C5.58889 3.73364 4.67778 3.58611 3.75556 3.58611C1.5 3.58611 0 4.78905 0 6.79773C0 9.92991 4.22222 9.43057 4.22222 10.781C4.22222 11.3031 3.77778 11.4733 3.15556 11.4733C2.23333 11.4733 1.05556 11.0875 0.122222 10.5654V13.2664C1.15556 13.7203 2.2 13.9132 3.15556 13.9132C5.46667 13.9132 7.05556 12.7443 7.05556 10.713C7.04444 7.33111 2.81111 7.93258 2.81111 6.66155ZM10.3222 1.31642L7.61111 1.90654L7.6 10.9967C7.6 12.6762 8.83333 13.9132 10.4778 13.9132C11.3889 13.9132 12.0556 13.743 12.4222 13.5387V11.235C12.0667 11.3825 10.3111 11.9045 10.3111 10.225V6.19626H12.4222V3.77904H10.3111L10.3222 1.31642ZM15.8778 4.61883L15.7 3.77904H13.3V13.7089H16.0778V6.97931C16.7333 6.10547 17.8444 6.26435 18.1889 6.38919V3.77904C17.8333 3.64286 16.5333 3.39319 15.8778 4.61883ZM18.8667 3.77904H21.6556V13.7089H18.8667V3.77904ZM18.8667 2.91656L21.6556 2.30374V0L18.8667 0.601469V2.91656ZM27.4556 3.58611C26.3667 3.58611 25.6667 4.10814 25.2778 4.4713L25.1333 3.76769H22.6889V17L25.4667 16.3985L25.4778 13.1869C25.8778 13.482 26.4667 13.9019 27.4444 13.9019C29.4333 13.9019 31.2444 12.2677 31.2444 8.67023C31.2333 5.37917 29.4 3.58611 27.4556 3.58611ZM26.7889 11.4052C26.1333 11.4052 25.7444 11.1669 25.4778 10.8718L25.4667 6.66155C25.7556 6.33244 26.1556 6.10547 26.7889 6.10547C27.8 6.10547 28.5 7.26302 28.5 8.74967C28.5 10.2704 27.8111 11.4052 26.7889 11.4052ZM40 8.78371C40 5.8785 38.6222 3.58611 35.9889 3.58611C33.3444 3.58611 31.7444 5.8785 31.7444 8.76101C31.7444 12.1769 33.6333 13.9019 36.3444 13.9019C37.6667 13.9019 38.6667 13.5955 39.4222 13.1642V10.8945C38.6667 11.2804 37.8 11.5187 36.7 11.5187C35.6222 11.5187 34.6667 11.1328 34.5444 9.79373H39.9778C39.9778 9.6462 40 9.05608 40 8.78371ZM34.5111 7.70561C34.5111 6.42323 35.2778 5.88985 35.9778 5.88985C36.6556 5.88985 37.3778 6.42323 37.3778 7.70561H34.5111Z" fill="#6772E5"/>
</svg>
