<svg width="36" height="36" viewBox="0 0 36 36" fill="none" xmlns="http://www.w3.org/2000/svg">
<path d="M13.5 3C9.57 3 6.375 6.195 6.375 10.125C6.375 13.98 9.39 17.1 13.32 17.235C13.44 17.22 13.56 17.22 13.65 17.235C13.68 17.235 13.695 17.235 13.725 17.235C13.74 17.235 13.74 17.235 13.755 17.235C17.595 17.1 20.61 13.98 20.625 10.125C20.625 6.195 17.43 3 13.5 3Z" fill="white"/>
<path d="M21.1213 21.2234C16.9363 18.4334 10.1114 18.4334 5.89641 21.2234C3.99141 22.4984 2.94141 24.2234 2.94141 26.0684C2.94141 27.9134 3.99141 29.6234 5.88141 30.8834C7.98141 32.2934 10.7414 32.9984 13.5014 32.9984C16.2613 32.9984 19.0213 32.2934 21.1213 30.8834C23.0113 29.6084 24.0613 27.8984 24.0613 26.0384C24.0463 24.1934 23.0113 22.4834 21.1213 21.2234Z" fill="white"/>
<path d="M29.9841 11.0072C30.2241 13.9172 28.1541 16.4671 25.2891 16.8121C25.2741 16.8121 25.2741 16.8121 25.2591 16.8121H25.2141C25.1241 16.8121 25.0341 16.8121 24.9591 16.8421C23.5041 16.9171 22.1691 16.4521 21.1641 15.5971C22.7091 14.2172 23.5941 12.1472 23.4141 9.89722C23.3091 8.68222 22.8891 7.57222 22.2591 6.62722C22.8291 6.34222 23.4891 6.16222 24.1641 6.10222C27.1041 5.84722 29.7291 8.03722 29.9841 11.0072Z" fill="white"/>
<path d="M32.9824 24.8856C32.8624 26.3406 31.9324 27.6006 30.3724 28.4556C28.8724 29.2806 26.9824 29.6706 25.1074 29.6256C26.1874 28.6506 26.8174 27.4356 26.9374 26.1456C27.0874 24.2856 26.2024 22.5006 24.4324 21.0756C23.4274 20.2806 22.2574 19.6506 20.9824 19.1856C24.2974 18.2256 28.4674 18.8706 31.0324 20.9406C32.4124 22.0506 33.1174 23.4456 32.9824 24.8856Z" fill="white"/>
</svg>
