<svg width="17" height="16" viewBox="0 0 17 16" fill="none" xmlns="http://www.w3.org/2000/svg">
<path d="M4.63456 5.73102V4.92608C4.63456 2.70329 6.43649 0.901367 8.65927 0.901367C10.882 0.901367 12.684 2.70329 12.684 4.92608V5.73102C14.4622 5.73102 15.9037 7.17259 15.9037 8.95079C15.9037 10.1426 15.2563 11.2114 14.2939 11.7681M4.63456 5.73102C2.85633 5.73102 1.41479 7.17259 1.41479 8.95079C1.41479 10.1426 2.06229 11.2114 3.02468 11.7681M4.63456 5.73102C4.98298 5.73102 5.31848 5.7864 5.63274 5.88871M8.65927 7.3409V14.5854M8.65927 7.3409L11.0741 9.75573M8.65927 7.3409L6.24445 9.75573" stroke="white" stroke-width="1.20741" stroke-linecap="round" stroke-linejoin="round"/>
</svg>
