<svg width="24" height="24" viewBox="0 0 24 24" fill="none" xmlns="http://www.w3.org/2000/svg">
<path d="M12.4494 20.1958H6.37003C3.33034 20.1958 2.32031 18.1758 2.32031 16.1461V8.04667C2.32031 5.00697 3.33034 3.99695 6.37003 3.99695H12.4494C15.4891 3.99695 16.4991 5.00697 16.4991 8.04667V16.1461C16.4991 19.1858 15.4795 20.1958 12.4494 20.1958Z" stroke="#8E92BC" stroke-width="1.44289" stroke-linecap="round" stroke-linejoin="round"/>
<path d="M19.1732 17.0023L16.499 15.1265V9.05674L19.1732 7.18098C20.4814 6.26715 21.5588 6.82506 21.5588 8.43149V15.7614C21.5588 17.3678 20.4814 17.9257 19.1732 17.0023Z" stroke="#8E92BC" stroke-width="1.44289" stroke-linecap="round" stroke-linejoin="round"/>
<path d="M11.4585 11.1345C12.2554 11.1345 12.9014 10.4885 12.9014 9.69161C12.9014 8.89472 12.2554 8.24872 11.4585 8.24872C10.6616 8.24872 10.0156 8.89472 10.0156 9.69161C10.0156 10.4885 10.6616 11.1345 11.4585 11.1345Z" stroke="#8E92BC" stroke-width="1.44289" stroke-linecap="round" stroke-linejoin="round"/>
</svg>
