<svg width="38" height="11" viewBox="0 0 38 11" fill="none" xmlns="http://www.w3.org/2000/svg">
<path fill-rule="evenodd" clip-rule="evenodd" d="M9.50039 10.9143H6.21176L3.74564 2.3808C3.62861 1.9883 3.38006 1.64124 3.01449 1.4777C2.1021 1.06671 1.09673 0.739555 0 0.574608V0.24605H5.29774C6.02897 0.24605 6.57733 0.739556 6.66869 1.31276L7.94828 7.46821L11.2354 0.24605H14.4326L9.50039 10.9143ZM16.2605 10.9143H13.1547L15.7121 0.24605H18.818L16.2605 10.9143ZM22.8362 3.20146C22.9276 2.62692 23.476 2.29836 24.1158 2.29836C25.1212 2.21585 26.2163 2.38087 27.1303 2.79046L27.6787 0.493505C26.7646 0.164947 25.7593 0 24.847 0C21.8325 0 19.6389 1.4777 19.6389 3.52861C19.6389 5.08882 21.1927 5.908 22.2895 6.40151C23.476 6.89361 23.933 7.22216 23.8416 7.71426C23.8416 8.45241 22.9276 8.78097 22.0153 8.78097C20.9185 8.78097 19.8217 8.53492 18.818 8.12385L18.2696 10.4222C19.3664 10.8318 20.553 10.9968 21.6497 10.9968C25.0297 11.0779 27.1303 9.60156 27.1303 7.3857C27.1303 4.59525 22.8362 4.4317 22.8362 3.20146ZM38 10.9143L35.5339 0.24605H32.885C32.3366 0.24605 31.7882 0.574608 31.6055 1.06671L27.0389 10.9143H30.2361L30.8743 9.35551H34.8027L35.1683 10.9143H38ZM33.342 3.11902L34.2544 7.13966H31.6969L33.342 3.11902Z" fill="#172B85"/>
</svg>
