<svg width="24" height="24" viewBox="0 0 24 24" fill="none" xmlns="http://www.w3.org/2000/svg">
<path d="M21.6365 18.1854C21.6365 18.5317 21.5595 18.8876 21.396 19.2339C21.2325 19.5802 21.0208 19.9073 20.7419 20.2151C20.2705 20.7345 19.7511 21.1097 19.1643 21.3502C18.5872 21.5906 17.9619 21.7157 17.2886 21.7157C16.3074 21.7157 15.2589 21.4848 14.1527 21.0135C13.0465 20.5421 11.9402 19.9073 10.8436 19.1089C9.73742 18.3008 8.68892 17.4062 7.68851 16.4155C6.69772 15.4151 5.80313 14.3666 5.00473 13.27C4.21595 12.1734 3.58107 11.0768 3.11935 9.98978C2.65762 8.89318 2.42676 7.84468 2.42676 6.84427C2.42676 6.19016 2.54219 5.5649 2.77305 4.98775C3.00392 4.40097 3.36945 3.86229 3.87927 3.38133C4.49491 2.77531 5.16826 2.47711 5.88008 2.47711C6.14942 2.47711 6.41876 2.53483 6.65925 2.65026C6.90935 2.76569 7.13059 2.93884 7.30374 3.18894L9.53541 6.33445C9.70856 6.57493 9.83361 6.79617 9.92018 7.0078C10.0068 7.2098 10.0549 7.41181 10.0549 7.59457C10.0549 7.82544 9.98752 8.0563 9.85285 8.27754C9.7278 8.49879 9.54503 8.72965 9.31417 8.96051L8.5831 9.72044C8.47729 9.82625 8.42919 9.9513 8.42919 10.1052C8.42919 10.1822 8.43881 10.2495 8.45805 10.3265C8.48691 10.4034 8.51577 10.4611 8.53501 10.5188C8.70815 10.8363 9.00635 11.2499 9.4296 11.7501C9.86247 12.2503 10.3242 12.7601 10.8244 13.27C11.3438 13.7798 11.844 14.2511 12.3539 14.684C12.8541 15.1072 13.2677 15.3958 13.5948 15.569C13.6428 15.5882 13.7006 15.6171 13.7679 15.6459C13.8449 15.6748 13.9218 15.6844 14.0084 15.6844C14.1719 15.6844 14.297 15.6267 14.4028 15.5209L15.1338 14.7994C15.3743 14.5589 15.6052 14.3762 15.8264 14.2607C16.0477 14.1261 16.2689 14.0587 16.5094 14.0587C16.6922 14.0587 16.8846 14.0972 17.0962 14.1838C17.3078 14.2704 17.529 14.3954 17.7695 14.5589L20.9535 16.8195C21.2036 16.9926 21.3768 17.1946 21.4826 17.4351C21.5788 17.6756 21.6365 17.9161 21.6365 18.1854Z" stroke="#8E92BC" stroke-width="1.44289" stroke-miterlimit="10"/>
</svg>
